Mazius Display-Regular.ufo
<glyph name="exclam" format="2">
  <advance width="242"/>
  <unicode hex="0021"/>
  <outline>
    <contour>
      <point x="110" y="195" type="line"/>
      <point x="121" y="195" type="line"/>
      <point x="176" y="722" type="line"/>
      <point x="136" y="741" type="line"/>
      <point x="66" y="723" type="line"/>
    </contour>
    <component base="period" xOffset="10"/>
  </outline>
</glyph>
<glyph name="quotedbl" format="2">
  <advance width="302"/>
  <unicode hex="0022"/>
  <outline>
    <contour>
      <point x="64" y="536" type="line"/>
      <point x="75" y="536" type="line"/>
      <point x="130" y="782" type="line"/>
      <point x="90" y="801" type="line"/>
      <point x="20" y="783" type="line"/>
    </contour>
    <contour>
      <point x="216" y="536" type="line"/>
      <point x="227" y="536" type="line"/>
      <point x="282" y="782" type="line"/>
      <point x="242" y="801" type="line"/>
      <point x="172" y="783" type="line"/>
    </contour>
  </outline>
</glyph>
<glyph name="numbersign" format="2">
  <advance width="724"/>
  <unicode hex="0023"/>
  <outline>
    <contour>
      <point x="108" y="-88" type="line"/>
      <point x="146" y="-88" type="line"/>
      <point x="360" y="628" type="line"/>
      <point x="322" y="628" type="line"/>
    </contour>
    <contour>
      <point x="368" y="-88" type="line"/>
      <point x="406" y="-88" type="line"/>
      <point x="620" y="628" type="line"/>
      <point x="582" y="628" type="line"/>
    </contour>
    <contour>
      <point x="40" y="121" type="line"/>
      <point x="640" y="121" type="line"/>
      <point x="640" y="154" type="line"/>
      <point x="40" y="154" type="line"/>
    </contour>
    <contour>
      <point x="84" y="381" type="line"/>
      <point x="684" y="381" type="line"/>
      <point x="684" y="414" type="line"/>
      <point x="84" y="414" type="line"/>
    </contour>
  </outline>
</glyph>
<glyph name="dollar" format="2">
  <advance width="560"/>
  <unicode hex="0024"/>
  <outline>
    <contour>
      <point x="291" y="788" type="line"/>
      <point x="268" y="788" type="line"/>
      <point x="268" y="-106" type="line"/>
      <point x="291" y="-106" type="line"/>
    </contour>
    <component base="S"/>
  </outline>
</glyph>
<glyph name="ampersand" format="2">
  <advance width="692"/>
  <unicode hex="0026"/>
  <outline>
    <contour>
      <point x="462" y="140" type="line"/>
      <point x="471" y="129" type="line"/>
      <point x="641" y="359" type="line"/>
      <point x="626" y="371" type="line"/>
    </contour>
    <contour>
      <point x="134" y="421"/>
      <point x="411" y="26"/>
      <point x="557" y="-14" type="curve"/>
      <point x="599" y="27" type="line"/>
      <point x="687" y="118" type="line"/>
      <point x="678" y="128" type="line"/>
      <point x="607" y="59" type="line"/>
      <point x="473" y="117"/>
      <point x="219" y="448"/>
      <point x="219" y="590" type="curve" smooth="yes"/>
      <point x="219" y="653"/>
      <point x="272" y="663"/>
      <point x="303" y="663" type="curve" smooth="yes"/>
      <point x="356" y="663"/>
      <point x="389" y="635"/>
      <point x="407" y="603" type="curve"/>
      <point x="418" y="599" type="line"/>
      <point x="471" y="643" type="line"/>
      <point x="447" y="709"/>
      <point x="349" y="735"/>
      <point x="292" y="716" type="curve"/>
      <point x="133" y="567" type="line"/>
    </contour>
    <contour>
      <point x="427" y="79" type="curve"/>
      <point x="419" y="90" type="line"/>
      <point x="389" y="60"/>
      <point x="359" y="56"/>
      <point x="326" y="56" type="curve" smooth="yes"/>
      <point x="198" y="56"/>
      <point x="118" y="138"/>
      <point x="118" y="247" type="curve" smooth="yes"/>
      <point x="118" y="309"/>
      <point x="144" y="356"/>
      <point x="199" y="407" type="curve"/>
      <point x="193" y="418" type="line"/>
      <point x="116" y="359"/>
      <point x="40" y="275"/>
      <point x="40" y="175" type="curve" smooth="yes"/>
      <point x="40" y="68"/>
      <point x="120" y="-14"/>
      <point x="298" y="-14" type="curve"/>
      <point x="341" y="10"/>
      <point x="384" y="37"/>
    </contour>
  </outline>
</glyph>
<glyph name="quotesingle" format="2">
  <advance width="160"/>
  <unicode hex="0027"/>
  <outline>
    <contour>
      <point x="69" y="536" type="line"/>
      <point x="80" y="536" type="line"/>
      <point x="135" y="782" type="line"/>
      <point x="95" y="801" type="line"/>
      <point x="25" y="783" type="line"/>
    </contour>
  </outline>
</glyph>
<glyph name="parenleft" format="2">
  <advance width="347"/>
  <unicode hex="0028"/>
  <outline>
    <contour>
      <point x="318" y="750" type="line"/>
      <point x="149" y="684"/>
      <point x="40" y="496"/>
      <point x="40" y="268" type="curve" smooth="yes"/>
      <point x="40" y="-3"/>
      <point x="156" y="-206"/>
      <point x="336" y="-250" type="curve"/>
      <point x="342" y="-233" type="line"/>
      <point x="228" y="-199"/>
      <point x="127" y="25"/>
      <point x="127" y="298" type="curve" smooth="yes"/>
      <point x="127" y="436"/>
      <point x="164" y="668"/>
      <point x="326" y="735" type="curve"/>
    </contour>
  </outline>
</glyph>
<glyph name="asterisk" format="2">
  <advance width="362"/>
  <unicode hex="002A"/>
  <outline>
    <contour>
      <point x="160" y="428" type="line"/>
      <point x="185" y="418" type="line"/>
      <point x="207" y="429" type="line"/>
      <point x="184" y="578" type="line"/>
      <point x="207" y="725" type="line"/>
      <point x="185" y="737" type="line"/>
      <point x="160" y="726" type="line"/>
      <point x="177" y="578" type="line"/>
    </contour>
    <contour>
      <point x="40" y="521" type="line"/>
      <point x="44" y="493" type="line"/>
      <point x="65" y="480" type="line"/>
      <point x="182" y="574" type="line"/>
      <point x="322" y="629" type="line"/>
      <point x="321" y="653" type="line"/>
      <point x="298" y="671" type="line"/>
      <point x="177" y="582" type="line"/>
    </contour>
    <contour>
      <point x="322" y="521" type="line"/>
      <point x="185" y="582" type="line"/>
      <point x="64" y="671" type="line"/>
      <point x="41" y="653" type="line"/>
      <point x="40" y="629" type="line"/>
      <point x="180" y="574" type="line"/>
      <point x="297" y="480" type="line"/>
      <point x="318" y="493" type="line"/>
    </contour>
  </outline>
</glyph>
<glyph name="plus" format="2">
  <advance width="476"/>
  <unicode hex="002B"/>
  <outline>
    <contour>
      <point x="50" y="217" type="line"/>
      <point x="426" y="217" type="line"/>
      <point x="426" y="255" type="line"/>
      <point x="50" y="255" type="line"/>
    </contour>
    <contour>
      <point x="219" y="44" type="line"/>
      <point x="257" y="44" type="line"/>
      <point x="257" y="426" type="line"/>
      <point x="219" y="426" type="line"/>
    </contour>
  </outline>
</glyph>
<glyph name="comma" format="2">
  <advance width="236"/>
  <unicode hex="002C"/>
  <outline>
    <contour>
      <point x="107" y="-16" type="curve"/>
      <point x="154" y="13" type="line"/>
      <point x="151" y="-62"/>
      <point x="108" y="-114"/>
      <point x="78" y="-140" type="curve"/>
      <point x="84" y="-147" type="line"/>
      <point x="151" y="-96"/>
      <point x="191" y="-32"/>
      <point x="191" y="32" type="curve" smooth="yes"/>
      <point x="191" y="111"/>
      <point x="150" y="127"/>
      <point x="114" y="126" type="curve"/>
      <point x="72" y="111"/>
      <point x="45" y="82"/>
      <point x="45" y="47" type="curve" smooth="yes"/>
      <point x="45" y="24"/>
      <point x="56" y="-5"/>
    </contour>
  </outline>
</glyph>
<glyph name="period" format="2">
  <advance width="222"/>
  <unicode hex="002E"/>
  <outline>
    <contour>
      <point x="113" y="-14" type="curve"/>
      <point x="152" y="2"/>
      <point x="177" y="35"/>
      <point x="177" y="67" type="curve" smooth="yes"/>
      <point x="177" y="105"/>
      <point x="144" y="129"/>
      <point x="108" y="126" type="curve"/>
      <point x="70" y="110"/>
      <point x="45" y="81"/>
      <point x="45" y="47" type="curve" smooth="yes"/>
      <point x="45" y="7"/>
      <point x="78" y="-14"/>
    </contour>
  </outline>
</glyph>
<glyph name="slash" format="2">
  <advance width="508"/>
  <unicode hex="002F"/>
  <outline>
    <contour>
      <point x="40" y="-250" type="line"/>
      <point x="80" y="-250" type="line"/>
      <point x="486" y="750" type="line"/>
      <point x="446" y="750" type="line"/>
    </contour>
  </outline>
</glyph>
<glyph name="zero" format="2">
  <advance width="553"/>
  <unicode hex="0030"/>
  <outline>
    <contour>
      <point x="277" y="-14" type="curve" smooth="yes"/>
      <point x="405" y="-14"/>
      <point x="513" y="101"/>
      <point x="513" y="234" type="curve" smooth="yes"/>
      <point x="513" y="392"/>
      <point x="417" y="494"/>
      <point x="277" y="494" type="curve" smooth="yes"/>
      <point x="149" y="494"/>
      <point x="40" y="376"/>
      <point x="40" y="234" type="curve" smooth="yes"/>
      <point x="40" y="83"/>
      <point x="137" y="-14"/>
    </contour>
    <contour>
      <point x="277" y="43" type="curve" smooth="yes"/>
      <point x="177" y="43"/>
      <point x="101" y="129"/>
      <point x="102" y="236" type="curve" smooth="yes"/>
      <point x="103" y="352"/>
      <point x="177" y="437"/>
      <point x="277" y="437" type="curve" smooth="yes"/>
      <point x="377" y="437"/>
      <point x="450" y="352"/>
      <point x="451" y="236" type="curve" smooth="yes"/>
      <point x="452" y="129"/>
      <point x="377" y="43"/>
    </contour>
  </outline>
</glyph>
<glyph name="one" format="2">
  <advance width="366"/>
  <unicode hex="0031"/>
  <outline>
    <contour>
      <point x="232" y="0" type="line" name="_corner01"/>
      <point x="232" y="470" type="line" name="_corner03"/>
      <point x="134" y="470" type="line" name="_corner02"/>
      <point x="134" y="0" type="line" name="_corner00"/>
    </contour>
  </outline>
</glyph>
<glyph name="two" format="2">
  <advance width="498"/>
  <unicode hex="0032"/>
  <outline>
    <contour>
      <point x="283" y="326" type="curve" smooth="yes"/>
      <point x="283" y="206"/>
      <point x="156" y="100"/>
      <point x="83" y="39" type="curve"/>
      <point x="73" y="20" type="line"/>
      <point x="222" y="105"/>
      <point x="394" y="244"/>
      <point x="394" y="355" type="curve" smooth="yes"/>
      <point x="394" y="420"/>
      <point x="331" y="484"/>
      <point x="234" y="484" type="curve"/>
      <point x="199" y="472"/>
      <point x="94" y="432"/>
      <point x="40" y="382" type="curve"/>
      <point x="50" y="370" type="line"/>
      <point x="91" y="402"/>
      <point x="137" y="423"/>
      <point x="186" y="423" type="curve" smooth="yes"/>
      <point x="242" y="423"/>
      <point x="283" y="394"/>
    </contour>
    <contour>
      <point x="83" y="39" type="line"/>
      <point x="42" y="6" type="line"/>
      <point x="42" y="0" type="line"/>
      <point x="389" y="0" type="line"/>
      <point x="463" y="117" type="line"/>
      <point x="452" y="124" type="line"/>
      <point x="418" y="79" type="line"/>
      <point x="108" y="45" type="line"/>
    </contour>
  </outline>
</glyph>
<glyph name="three" format="2">
  <advance width="496"/>
  <unicode hex="0033"/>
  <outline>
    <contour>
      <point x="59" y="345" type="line"/>
      <point x="69" y="339" type="line"/>
      <point x="117" y="396" type="line"/>
      <point x="355" y="395" type="line"/>
      <point x="130" y="144" type="line"/>
      <point x="142" y="134" type="line"/>
      <point x="448" y="470" type="line"/>
      <point x="158" y="470" type="line"/>
    </contour>
    <contour>
      <point x="54" y="-104" type="curve"/>
      <point x="62" y="-173"/>
      <point x="119" y="-230"/>
      <point x="197" y="-230" type="curve" smooth="yes"/>
      <point x="202" y="-230"/>
      <point x="207" y="-229"/>
      <point x="212" y="-229" type="curve"/>
      <point x="288" y="-183"/>
      <point x="442" y="-114"/>
      <point x="442" y="38" type="curve" smooth="yes"/>
      <point x="442" y="172"/>
      <point x="331" y="234"/>
      <point x="205" y="221" type="curve"/>
      <point x="149" y="146" type="line"/>
      <point x="264" y="167"/>
      <point x="365" y="106"/>
      <point x="365" y="-18" type="curve" smooth="yes"/>
      <point x="365" y="-87"/>
      <point x="338" y="-163"/>
      <point x="258" y="-163" type="curve" smooth="yes"/>
      <point x="187" y="-163"/>
      <point x="133" y="-104"/>
      <point x="125" y="-40" type="curve"/>
      <point x="114" y="-41" type="line"/>
      <point x="101" y="-58"/>
      <point x="70" y="-88"/>
    </contour>
  </outline>
</glyph>
<glyph name="four" format="2">
  <advance width="537"/>
  <unicode hex="0034"/>
  <outline>
    <contour>
      <point x="304" y="487" type="line"/>
      <point x="249" y="353"/>
      <point x="137" y="167"/>
      <point x="30" y="-10" type="curve"/>
      <point x="314" y="-5" type="line"/>
      <point x="314" y="-244" type="line"/>
      <point x="396" y="-212" type="line"/>
      <point x="403" y="-199" type="line"/>
      <point x="403" y="-3" type="line"/>
      <point x="523" y="-1" type="line"/>
      <point x="523" y="18" type="line"/>
      <point x="403" y="16" type="line"/>
      <point x="403" y="144" type="line"/>
      <point x="391" y="150" type="line"/>
      <point x="319" y="134" type="line"/>
      <point x="314" y="-5" type="line"/>
      <point x="403" y="-3" type="line"/>
      <point x="403" y="16" type="line"/>
      <point x="42" y="9" type="line"/>
      <point x="30" y="-10" type="line"/>
      <point x="112" y="-8" type="line"/>
      <point x="424" y="484" type="line"/>
      <point x="422" y="487" type="line"/>
    </contour>
  </outline>
</glyph>
<glyph name="five" format="2">
  <advance width="488"/>
  <unicode hex="0035"/>
  <outline>
    <contour>
      <point x="154" y="391" type="line"/>
      <point x="105" y="149" type="line"/>
      <point x="90" y="146" type="line"/>
      <point x="140" y="470" type="line"/>
      <point x="431" y="470" type="line"/>
      <point x="433" y="466" type="line"/>
      <point x="373" y="389" type="line"/>
    </contour>
    <contour>
      <point x="35" y="-104" type="curve"/>
      <point x="51" y="-88"/>
      <point x="82" y="-58"/>
      <point x="95" y="-41" type="curve"/>
      <point x="106" y="-40" type="line"/>
      <point x="114" y="-108"/>
      <point x="175" y="-170"/>
      <point x="252" y="-162" type="curve" smooth="yes"/>
      <point x="331" y="-154"/>
      <point x="352" y="-63"/>
      <point x="345" y="7" type="curve" smooth="yes"/>
      <point x="333" y="118"/>
      <point x="231" y="165"/>
      <point x="90" y="146" type="curve"/>
      <point x="165" y="221" type="line"/>
      <point x="294" y="232"/>
      <point x="410" y="184"/>
      <point x="422" y="63" type="curve" smooth="yes"/>
      <point x="440" y="-107"/>
      <point x="273" y="-181"/>
      <point x="193" y="-229" type="curve"/>
      <point x="108" y="-237"/>
      <point x="43" y="-177"/>
    </contour>
  </outline>
</glyph>
<glyph name="six" format="2">
  <advance width="549"/>
  <unicode hex="0036"/>
  <outline>
    <contour>
      <point x="116" y="0"/>
      <point x="65" y="102"/>
      <point x="65" y="254" type="curve" smooth="yes"/>
      <point x="65" y="476"/>
      <point x="237" y="677"/>
      <point x="440" y="764" type="curve"/>
      <point x="447" y="751" type="line"/>
      <point x="296" y="705"/>
      <point x="159" y="472"/>
      <point x="159" y="284" type="curve" smooth="yes"/>
      <point x="159" y="186"/>
      <point x="222" y="29"/>
      <point x="313" y="29" type="curve" smooth="yes"/>
      <point x="377" y="29"/>
      <point x="407" y="94"/>
      <point x="407" y="172" type="curve" smooth="yes"/>
      <point x="407" y="233"/>
      <point x="380" y="380"/>
      <point x="286" y="380" type="curve" smooth="yes"/>
      <point x="260" y="380"/>
      <point x="222" y="373"/>
      <point x="175" y="305" type="curve"/>
      <point x="165" y="313" type="line"/>
      <point x="200" y="369"/>
      <point x="310" y="446"/>
      <point x="320" y="452" type="curve"/>
      <point x="415" y="465"/>
      <point x="489" y="366"/>
      <point x="489" y="262" type="curve" smooth="yes"/>
      <point x="489" y="82"/>
      <point x="329" y="-4"/>
      <point x="268" y="-19" type="curve"/>
    </contour>
  </outline>
</glyph>
<glyph name="seven" format="2">
  <advance width="494"/>
  <unicode hex="0037"/>
  <outline>
    <contour>
      <point x="20" y="322" type="line"/>
      <point x="129" y="470" type="line"/>
      <point x="464" y="470" type="line"/>
      <point x="187" y="-238" type="line"/>
      <point x="67" y="-236" type="line"/>
      <point x="408" y="385" type="line"/>
      <point x="90" y="386" type="line"/>
      <point x="35" y="313" type="line"/>
    </contour>
  </outline>
</glyph>
<glyph name="eight" format="2">
  <advance width="553"/>
  <unicode hex="0038"/>
  <outline>
    <contour>
      <point x="493" y="371"/>
      <point x="175" y="389"/>
      <point x="175" y="583" type="curve" smooth="yes"/>
      <point x="175" y="626"/>
      <point x="191" y="689"/>
      <point x="275" y="689" type="curve" smooth="yes"/>
      <point x="337" y="689"/>
      <point x="376" y="636"/>
      <point x="376" y="550" type="curve" smooth="yes"/>
      <point x="376" y="483"/>
      <point x="344" y="421"/>
      <point x="296" y="391" type="curve"/>
      <point x="305" y="388" type="line"/>
      <point x="361" y="408"/>
      <point x="465" y="472"/>
      <point x="465" y="567" type="curve" smooth="yes"/>
      <point x="465" y="658"/>
      <point x="367" y="712"/>
      <point x="275" y="712" type="curve"/>
      <point x="193" y="689"/>
      <point x="86" y="655"/>
      <point x="86" y="537" type="curve" smooth="yes"/>
      <point x="86" y="335"/>
      <point x="403" y="300"/>
      <point x="403" y="143" type="curve" smooth="yes"/>
      <point x="403" y="83"/>
      <point x="366" y="13"/>
      <point x="293" y="13" type="curve" smooth="yes"/>
      <point x="207" y="13"/>
      <point x="152" y="75"/>
      <point x="152" y="175" type="curve" smooth="yes"/>
      <point x="152" y="244"/>
      <point x="189" y="311"/>
      <point x="247" y="362" type="curve"/>
      <point x="238" y="366" type="line"/>
      <point x="213" y="340"/>
      <point x="60" y="290"/>
      <point x="60" y="153" type="curve" smooth="yes"/>
      <point x="60" y="34"/>
      <point x="177" y="-13"/>
      <point x="288" y="-13" type="curve"/>
      <point x="395" y="21"/>
      <point x="493" y="60"/>
      <point x="493" y="171" type="curve" smooth="yes"/>
    </contour>
  </outline>
</glyph>
<glyph name="nine" format="2">
  <advance width="546"/>
  <unicode hex="0039"/>
  <outline>
    <contour>
      <point x="397" y="503"/>
      <point x="486" y="392"/>
      <point x="486" y="222" type="curve" smooth="yes"/>
      <point x="486" y="3"/>
      <point x="323" y="-191"/>
      <point x="121" y="-277" type="curve"/>
      <point x="114" y="-263" type="line"/>
      <point x="262" y="-219"/>
      <point x="393" y="5"/>
      <point x="393" y="192" type="curve" smooth="yes"/>
      <point x="393" y="312"/>
      <point x="325" y="438"/>
      <point x="232" y="438" type="curve" smooth="yes"/>
      <point x="229" y="438"/>
      <point x="225" y="437"/>
      <point x="222" y="437" type="curve"/>
      <point x="168" y="425"/>
      <point x="146" y="382"/>
      <point x="146" y="315" type="curve" smooth="yes"/>
      <point x="146" y="249"/>
      <point x="173" y="93"/>
      <point x="271" y="93" type="curve" smooth="yes"/>
      <point x="293" y="93"/>
      <point x="340" y="107"/>
      <point x="377" y="173" type="curve"/>
      <point x="387" y="169" type="line"/>
      <point x="347" y="95"/>
      <point x="231" y="33"/>
      <point x="231" y="30" type="curve"/>
      <point x="139" y="19"/>
      <point x="65" y="109"/>
      <point x="65" y="218" type="curve" smooth="yes"/>
      <point x="65" y="399"/>
      <point x="216" y="471"/>
      <point x="258" y="481" type="curve"/>
    </contour>
  </outline>
</glyph>
<glyph name="greater" format="2">
  <advance width="448"/>
  <unicode hex="003E"/>
  <outline>
    <contour>
      <point x="66" y="73" type="line"/>
      <point x="398" y="222" type="line"/>
      <point x="398" y="238" type="line"/>
      <point x="68" y="399" type="line"/>
      <point x="52" y="363" type="line"/>
      <point x="334" y="231" type="line"/>
      <point x="50" y="109" type="line"/>
    </contour>
  </outline>
</glyph>
<glyph name="question" format="2">
  <advance width="414"/>
  <unicode hex="003F"/>
  <outline>
    <contour>
      <point x="43" y="611" type="line"/>
      <point x="98" y="660"/>
      <point x="163" y="688"/>
      <point x="220" y="710" type="curve"/>
      <point x="303" y="710"/>
      <point x="394" y="665"/>
      <point x="394" y="574" type="curve" smooth="yes"/>
      <point x="394" y="477"/>
      <point x="285" y="372"/>
      <point x="216" y="337" type="curve"/>
      <point x="222" y="297"/>
      <point x="237" y="272"/>
      <point x="263" y="254" type="curve"/>
      <point x="263" y="246" type="line"/>
      <point x="194" y="195" type="line"/>
      <point x="161" y="215"/>
      <point x="146" y="248"/>
      <point x="150" y="298" type="curve"/>
      <point x="217" y="356"/>
      <point x="285" y="428"/>
      <point x="285" y="534" type="curve" smooth="yes"/>
      <point x="285" y="616"/>
      <point x="239" y="647"/>
      <point x="180" y="647" type="curve" smooth="yes"/>
      <point x="139" y="647"/>
      <point x="88" y="633"/>
      <point x="49" y="602" type="curve"/>
    </contour>
    <component base="period" xOffset="94" yOffset="-5"/>
  </outline>
</glyph>
<glyph name="at" format="2">
  <advance width="909"/>
  <unicode hex="0040"/>
  <anchor x="555" y="518" name="top"/>
  <outline>
    <contour>
      <point x="543" y="91" type="curve"/>
      <point x="517" y="48" type="line"/>
      <point x="745" y="203"/>
      <point x="870" y="287"/>
      <point x="870" y="446" type="curve" smooth="yes"/>
      <point x="870" y="650"/>
      <point x="712" y="751"/>
      <point x="496" y="756" type="curve"/>
      <point x="416" y="716"/>
      <point x="36" y="569"/>
      <point x="36" y="213" type="curve" smooth="yes"/>
      <point x="36" y="-43"/>
      <point x="232" y="-156"/>
      <point x="476" y="-156" type="curve"/>
      <point x="593" y="-103"/>
      <point x="700" y="-30"/>
      <point x="773" y="58" type="curve"/>
      <point x="760" y="66" type="line"/>
      <point x="676" y="-31"/>
      <point x="611" y="-60"/>
      <point x="560" y="-87" type="curve"/>
      <point x="254" y="-87"/>
      <point x="126" y="13"/>
      <point x="126" y="253" type="curve" smooth="yes"/>
      <point x="126" y="490"/>
      <point x="301" y="687"/>
      <point x="466" y="687" type="curve" smooth="yes"/>
      <point x="676" y="687"/>
      <point x="786" y="591"/>
      <point x="786" y="407" type="curve" smooth="yes"/>
      <point x="786" y="280"/>
      <point x="704" y="193"/>
    </contour>
    <contour>
      <point x="517" y="48" type="line"/>
      <point x="546" y="89" type="line"/>
      <point x="667" y="512" type="line"/>
      <point x="633" y="529"/>
      <point x="569" y="548"/>
      <point x="531" y="548" type="curve"/>
      <point x="371" y="496"/>
      <point x="233" y="336"/>
      <point x="233" y="192" type="curve" smooth="yes"/>
      <point x="233" y="124"/>
      <point x="271" y="66"/>
      <point x="327" y="50" type="curve"/>
      <point x="411" y="110"/>
      <point x="484" y="283"/>
      <point x="563" y="459" type="curve"/>
      <point x="567" y="459" type="line"/>
      <point x="455" y="76" type="line"/>
    </contour>
    <contour>
      <point x="368" y="128" type="curve"/>
      <point x="340" y="136"/>
      <point x="323" y="183"/>
      <point x="323" y="244" type="curve" smooth="yes"/>
      <point x="323" y="354"/>
      <point x="377" y="464"/>
      <point x="476" y="505" type="curve"/>
      <point x="512" y="505"/>
      <point x="531" y="496"/>
      <point x="558" y="480" type="curve"/>
      <point x="518" y="381"/>
      <point x="428" y="176"/>
    </contour>
  </outline>
</glyph>
<glyph name="A" format="2">
  <advance width="702"/>
  <unicode hex="0041"/>
  <anchor x="320" y="0" name="bottom"/>
  <anchor x="611" y="10" name="ogonek"/>
  <anchor x="340" y="700" name="top"/>
  <outline>
    <contour>
      <point x="522" y="0" type="line" name="_corner01"/>
      <point x="631" y="0" type="line" name="_corner00"/>
      <point x="407" y="705" type="line"/>
      <point x="311" y="700" type="line"/>
      <point x="61" y="0" type="line" name="_corner03"/>
      <point x="87" y="0" type="line" name="_corner02"/>
      <point x="320" y="660" type="line"/>
    </contour>
    <contour>
      <point x="164" y="248" type="line"/>
      <point x="466" y="248" type="line"/>
      <point x="466" y="265" type="line"/>
      <point x="172" y="265" type="line"/>
    </contour>
    <contour>
      <point x="307" y="680" type="line"/>
      <point x="320" y="700" type="line"/>
      <point x="230" y="700" type="line"/>
      <point x="230" y="694" type="line"/>
    </contour>
  </outline>
</glyph>
<glyph name="B" format="2">
  <advance width="624"/>
  <unicode hex="0042"/>
  <anchor x="323" y="0" name="bottom"/>
  <anchor x="323" y="350" name="center"/>
  <anchor x="323" y="700" name="top"/>
  <outline>
    <contour>
      <point x="211" y="384" type="curve"/>
      <point x="211" y="668" type="line"/>
      <point x="220" y="676"/>
      <point x="257" y="683"/>
      <point x="284" y="683" type="curve" smooth="yes"/>
      <point x="396" y="683"/>
      <point x="453" y="618"/>
      <point x="453" y="539" type="curve" smooth="yes"/>
      <point x="453" y="430"/>
      <point x="374" y="379"/>
      <point x="294" y="379" type="curve" smooth="yes"/>
      <point x="264" y="379"/>
      <point x="241" y="382"/>
    </contour>
    <contour>
      <point x="211" y="372" type="line"/>
      <point x="337" y="362" type="line"/>
      <point x="420" y="375"/>
      <point x="558" y="409"/>
      <point x="557" y="550" type="curve" smooth="yes"/>
      <point x="556" y="670"/>
      <point x="455" y="701"/>
      <point x="309" y="700" type="curve"/>
      <point x="112" y="700" type="line" name="_corner01"/>
      <point x="112" y="0" type="line" name="_corner00"/>
      <point x="211" y="0" type="line"/>
    </contour>
    <contour>
      <point x="201" y="380" type="line"/>
      <point x="201" y="352" type="line"/>
      <point x="213" y="358"/>
      <point x="256" y="361"/>
      <point x="294" y="361" type="curve" smooth="yes"/>
      <point x="406" y="360"/>
      <point x="488" y="268"/>
      <point x="488" y="170" type="curve" smooth="yes"/>
      <point x="488" y="65"/>
      <point x="434" y="18"/>
      <point x="339" y="18" type="curve" smooth="yes"/>
      <point x="284" y="18"/>
      <point x="219" y="30"/>
      <point x="201" y="60" type="curve"/>
      <point x="201" y="0" type="line"/>
      <point x="320" y="0" type="line" smooth="yes"/>
      <point x="431" y="0"/>
      <point x="594" y="31"/>
      <point x="594" y="184" type="curve" smooth="yes"/>
      <point x="594" y="308"/>
      <point x="465" y="379"/>
      <point x="319" y="376" type="curve"/>
    </contour>
  </outline>
</glyph>
<glyph name="C" format="2">
  <advance width="647"/>
  <unicode hex="0043"/>
  <anchor x="326" y="0" name="bottom"/>
  <anchor x="356" y="700" name="top"/>
  <outline>
    <contour>
      <point x="44" y="321" type="curve" smooth="yes"/>
      <point x="44" y="126"/>
      <point x="179" y="-15"/>
      <point x="418" y="-12" type="curve"/>
      <point x="482" y="19"/>
      <point x="600" y="119"/>
      <point x="628" y="144" type="curve"/>
      <point x="622" y="152" type="line"/>
      <point x="569" y="116"/>
      <point x="517" y="80"/>
      <point x="464" y="46" type="curve"/>
      <point x="267" y="43"/>
      <point x="144" y="197"/>
      <point x="144" y="383" type="curve" smooth="yes"/>
      <point x="144" y="556"/>
      <point x="251" y="662"/>
      <point x="347" y="662" type="curve" smooth="yes"/>
      <point x="456" y="662"/>
      <point x="558" y="603"/>
      <point x="573" y="500" type="curve"/>
      <point x="585" y="501" type="line"/>
      <point x="581" y="681" type="line"/>
      <point x="514" y="704"/>
      <point x="448" y="718"/>
      <point x="377" y="714" type="curve"/>
      <point x="184" y="639"/>
      <point x="44" y="525"/>
    </contour>
  </outline>
</glyph>
<glyph name="D" format="2">
  <advance width="756"/>
  <unicode hex="0044"/>
  <anchor x="393" y="0" name="bottom"/>
  <anchor x="393" y="350" name="center"/>
  <anchor x="371" y="700" name="top"/>
  <outline>
    <contour>
      <point x="112" y="0" type="line" name="_corner01"/>
      <point x="214" y="0" type="line"/>
      <point x="348" y="-5" type="line"/>
      <point x="414" y="-2"/>
      <point x="710" y="127"/>
      <point x="710" y="383" type="curve" smooth="yes"/>
      <point x="710" y="599"/>
      <point x="570" y="702"/>
      <point x="354" y="701" type="curve" smooth="yes"/>
      <point x="112" y="700" type="line" name="_corner00"/>
    </contour>
    <contour>
      <point x="212" y="64" type="curve"/>
      <point x="212" y="676" type="line"/>
      <point x="234" y="681"/>
      <point x="278" y="682"/>
      <point x="293" y="682" type="curve" smooth="yes"/>
      <point x="487" y="682"/>
      <point x="597" y="597"/>
      <point x="597" y="372" type="curve" smooth="yes"/>
      <point x="597" y="161"/>
      <point x="497" y="30"/>
      <point x="364" y="30" type="curve" smooth="yes"/>
      <point x="313" y="30"/>
      <point x="255" y="43"/>
    </contour>
  </outline>
</glyph>
<glyph name="E" format="2">
  <advance width="617"/>
  <unicode hex="0045"/>
  <anchor x="324" y="0" name="bottom"/>
  <anchor x="522" y="10" name="ogonek"/>
  <anchor x="324" y="700" name="top"/>
  <anchor x="20" y="700" name="topleft"/>
  <outline>
    <contour>
      <point x="112" y="0" type="line" name="_corner01"/>
      <point x="212" y="0" type="line"/>
      <point x="212" y="700" type="line"/>
      <point x="112" y="700" type="line" name="_corner00"/>
    </contour>
    <contour>
      <point x="191" y="0" type="line"/>
      <point x="570" y="0" type="line"/>
      <point x="592" y="185" type="line"/>
      <point x="584" y="187" type="line"/>
      <point x="568" y="154"/>
      <point x="501" y="42"/>
      <point x="466" y="19" type="curve"/>
      <point x="199" y="19" type="line"/>
    </contour>
    <contour>
      <point x="191" y="354" type="line"/>
      <point x="413" y="354" type="line"/>
      <point x="456" y="258" type="line"/>
      <point x="467" y="258" type="line"/>
      <point x="467" y="470" type="line"/>
      <point x="456" y="470" type="line"/>
      <point x="413" y="373" type="line"/>
      <point x="199" y="373" type="line"/>
    </contour>
    <contour>
      <point x="191" y="681" type="line"/>
      <point x="471" y="681" type="line"/>
      <point x="507" y="651"/>
      <point x="565" y="547"/>
      <point x="580" y="516" type="curve"/>
      <point x="586" y="516" type="line"/>
      <point x="570" y="703" type="line"/>
      <point x="545" y="700" type="line"/>
      <point x="199" y="700" type="line"/>
    </contour>
  </outline>
</glyph>
<glyph name="F" format="2">
  <advance width="604"/>
  <unicode hex="0046"/>
  <anchor x="316" y="0" name="bottom"/>
  <anchor x="316" y="700" name="top"/>
  <outline>
    <contour>
      <point x="112" y="700" type="line" name="_corner01"/>
      <point x="112" y="0" type="line" name="_corner00"/>
      <point x="212" y="0" type="line" name="_corner02"/>
      <point x="212" y="700" type="line"/>
    </contour>
    <contour>
      <point x="199" y="700" type="line"/>
      <point x="191" y="681" type="line"/>
      <point x="471" y="681" type="line"/>
      <point x="507" y="651"/>
      <point x="565" y="547"/>
      <point x="580" y="516" type="curve"/>
      <point x="586" y="516" type="line"/>
      <point x="570" y="703" type="line"/>
      <point x="545" y="700" type="line"/>
    </contour>
    <contour>
      <point x="171" y="327" type="line"/>
      <point x="393" y="327" type="line"/>
      <point x="436" y="211" type="line"/>
      <point x="447" y="211" type="line"/>
      <point x="447" y="443" type="line"/>
      <point x="436" y="443" type="line"/>
      <point x="393" y="346" type="line"/>
      <point x="179" y="346" type="line"/>
    </contour>
  </outline>
</glyph>
<glyph name="G" format="2">
  <advance width="694"/>
  <unicode hex="0047"/>
  <anchor x="401" y="0" name="bottom"/>
  <anchor x="353" y="700" name="top"/>
  <outline>
    <contour>
      <point x="539" y="79" type="line"/>
      <point x="635" y="143" type="line"/>
      <point x="632" y="316" type="line" name="_corner00"/>
      <point x="537" y="315" type="line" name="_corner01"/>
    </contour>
    <contour>
      <point x="44" y="317" type="curve" smooth="yes"/>
      <point x="44" y="124"/>
      <point x="167" y="-14"/>
      <point x="394" y="-12" type="curve"/>
      <point x="457" y="19"/>
      <point x="596" y="117"/>
      <point x="624" y="143" type="curve"/>
      <point x="621" y="151" type="line"/>
      <point x="443" y="41" type="line"/>
      <point x="257" y="39"/>
      <point x="145" y="196"/>
      <point x="145" y="381" type="curve" smooth="yes"/>
      <point x="145" y="552"/>
      <point x="248" y="661"/>
      <point x="343" y="662" type="curve" smooth="yes"/>
      <point x="463" y="664"/>
      <point x="567" y="604"/>
      <point x="582" y="499" type="curve"/>
      <point x="594" y="500" type="line"/>
      <point x="591" y="680" type="line"/>
      <point x="519" y="704"/>
      <point x="455" y="718"/>
      <point x="379" y="714" type="curve"/>
      <point x="184" y="640"/>
      <point x="44" y="525"/>
    </contour>
  </outline>
</glyph>
<glyph name="J" format="2">
  <advance width="349"/>
  <unicode hex="004A"/>
  <anchor x="175" y="0" name="bottom"/>
  <anchor x="175" y="700" name="top"/>
  <outline>
    <contour>
      <point x="21" y="-133" type="curve"/>
      <point x="-16" y="-129" type="line"/>
      <point x="-78" y="-227" type="line"/>
      <point x="-55" y="-260"/>
      <point x="-13" y="-280"/>
      <point x="34" y="-280" type="curve" smooth="yes"/>
      <point x="42" y="-280"/>
      <point x="50" y="-279"/>
      <point x="58" y="-278" type="curve"/>
      <point x="134" y="-216"/>
      <point x="208" y="-135"/>
      <point x="241" y="-21" type="curve"/>
      <point x="241" y="700" type="line" name="_corner00"/>
      <point x="141" y="700" type="line" name="_corner01"/>
      <point x="141" y="-167" type="line"/>
      <point x="131" y="-188"/>
      <point x="112" y="-199"/>
      <point x="92" y="-199" type="curve" smooth="yes"/>
      <point x="65" y="-199"/>
      <point x="37" y="-180"/>
    </contour>
  </outline>
</glyph>
<glyph name="K" format="2">
  <advance width="664"/>
  <unicode hex="004B"/>
  <anchor x="347" y="0" name="bottom"/>
  <anchor x="347" y="700" name="top"/>
  <outline>
    <contour>
      <point x="198" y="304" type="line"/>
      <point x="207" y="285" type="line"/>
      <point x="583" y="700" type="line" name="_corner04"/>
      <point x="554" y="700" type="line" name="_corner05"/>
    </contour>
    <contour>
      <point x="112" y="0" type="line" name="_corner03"/>
      <point x="212" y="0" type="line" name="_corner02"/>
      <point x="212" y="699" type="line" name="_corner00"/>
      <point x="112" y="700" type="line" name="_corner01"/>
    </contour>
    <contour>
      <point x="275" y="371" type="line"/>
      <point x="482" y="0" type="line"/>
      <point x="622" y="-1" type="line"/>
      <point x="691" y="47" type="line"/>
      <point x="685" y="56" type="line"/>
      <point x="619" y="19" type="line"/>
      <point x="583" y="19"/>
      <point x="404" y="338"/>
      <point x="369" y="413" type="curve"/>
    </contour>
  </outline>
</glyph>
<glyph name="L" format="2">
  <advance width="589"/>
  <unicode hex="004C"/>
  <anchor x="317" y="0" name="bottom"/>
  <anchor x="177" y="700" name="top"/>
  <anchor x="390" y="700" name="topright"/>
  <outline>
    <contour>
      <point x="112" y="0" type="line" name="_corner00"/>
      <point x="219" y="0" type="line"/>
      <point x="219" y="699" type="line" name="_corner02"/>
      <point x="118" y="700" type="line" name="_corner01"/>
    </contour>
    <contour>
      <point x="146" y="20" type="line"/>
      <point x="150" y="0" type="line"/>
      <point x="544" y="0" type="line"/>
      <point x="544" y="13" type="line"/>
      <point x="213" y="15" type="line"/>
    </contour>
    <contour>
      <point x="544" y="0" type="line"/>
      <point x="559" y="185" type="line"/>
      <point x="551" y="187" type="line"/>
      <point x="533" y="150"/>
      <point x="459" y="13"/>
      <point x="429" y="14" type="curve"/>
    </contour>
  </outline>
</glyph>
<glyph name="M" format="2">
  <advance width="902"/>
  <unicode hex="004D"/>
  <anchor x="434" y="0" name="bottom"/>
  <anchor x="434" y="700" name="top"/>
  <outline>
    <contour>
      <point x="412" y="-2" type="line"/>
      <point x="424" y="-2" type="line"/>
      <point x="716" y="700" type="line"/>
      <point x="690" y="700" type="line"/>
      <point x="455" y="140" type="line"/>
      <point x="455" y="142" type="line"/>
      <point x="226" y="700" type="line"/>
      <point x="113" y="700" type="line"/>
    </contour>
    <contour>
      <point x="102" y="700" type="line" name="_corner00"/>
      <point x="102" y="0" type="line" name="_corner02"/>
      <point x="129" y="0" type="line" name="_corner03"/>
      <point x="129" y="700" type="line"/>
    </contour>
    <contour>
      <point x="690" y="0" type="line" name="_corner05"/>
      <point x="790" y="0" type="line" name="_corner04"/>
      <point x="790" y="700" type="line" name="_corner01"/>
      <point x="690" y="700" type="line"/>
    </contour>
  </outline>
</glyph>
<glyph name="N" format="2">
  <advance width="701"/>
  <unicode hex="004E"/>
  <anchor x="356" y="0" name="bottom"/>
  <anchor x="360" y="700" name="top"/>
  <outline>
    <contour>
      <point x="102" y="-1" type="line" name="_corner01"/>
      <point x="129" y="0" type="line" name="_corner00"/>
      <point x="129" y="636" type="line"/>
      <point x="582" y="0" type="line"/>
      <point x="598" y="0" type="line"/>
      <point x="599" y="700" type="line" name="_corner03"/>
      <point x="572" y="700" type="line" name="_corner04"/>
      <point x="572" y="191" type="line"/>
      <point x="209" y="700" type="line"/>
      <point x="102" y="700" type="line" name="_corner02"/>
    </contour>
  </outline>
</glyph>
<glyph name="O" format="2">
  <advance width="766"/>
  <unicode hex="004F"/>
  <anchor x="390" y="700" name="top"/>
  <outline>
    <contour>
      <point x="395" y="37" type="curve" smooth="yes"/>
      <point x="241" y="37"/>
      <point x="148" y="195"/>
      <point x="148" y="375" type="curve" smooth="yes"/>
      <point x="148" y="549"/>
      <point x="237" y="666"/>
      <point x="373" y="666" type="curve" smooth="yes"/>
      <point x="522" y="666"/>
      <point x="614" y="517"/>
      <point x="614" y="326" type="curve" smooth="yes"/>
      <point x="614" y="138"/>
      <point x="523" y="37"/>
    </contour>
    <contour>
      <point x="720" y="379" type="curve" smooth="yes"/>
      <point x="720" y="530"/>
      <point x="638" y="719"/>
      <point x="385" y="714" type="curve"/>
      <point x="266" y="672"/>
      <point x="44" y="555"/>
      <point x="44" y="315" type="curve" smooth="yes"/>
      <point x="44" y="165"/>
      <point x="141" y="-10"/>
      <point x="358" y="-13" type="curve"/>
      <point x="485" y="22"/>
      <point x="720" y="124"/>
    </contour>
  </outline>
</glyph>
<glyph name="P" format="2">
  <advance width="588"/>
  <unicode hex="0050"/>
  <anchor x="297" y="0" name="bottom"/>
  <anchor x="297" y="700" name="top"/>
  <outline>
    <contour>
      <point x="112" y="0" type="line" name="_corner02"/>
      <point x="212" y="0" type="line" name="_corner01"/>
      <point x="212" y="301" type="line"/>
      <point x="301" y="302" type="line"/>
      <point x="339" y="305"/>
      <point x="569" y="323"/>
      <point x="568" y="526" type="curve" smooth="yes"/>
      <point x="567" y="650"/>
      <point x="472" y="702"/>
      <point x="330" y="701" type="curve" smooth="yes"/>
      <point x="112" y="700" type="line" name="_corner00"/>
    </contour>
    <contour>
      <point x="212" y="340" type="curve"/>
      <point x="212" y="670" type="line"/>
      <point x="221" y="678"/>
      <point x="288" y="683"/>
      <point x="305" y="683" type="curve" smooth="yes"/>
      <point x="412" y="683"/>
      <point x="464" y="606"/>
      <point x="464" y="505" type="curve" smooth="yes"/>
      <point x="464" y="386"/>
      <point x="413" y="324"/>
      <point x="323" y="324" type="curve" smooth="yes"/>
      <point x="293" y="324"/>
      <point x="252" y="329"/>
    </contour>
  </outline>
</glyph>
<glyph name="Q" format="2">
  <advance width="773"/>
  <unicode hex="0051"/>
  <anchor x="377" y="0" name="bottom"/>
  <anchor x="377" y="700" name="top"/>
  <outline>
    <contour>
      <point x="232" y="-96" type="curve"/>
      <point x="300" y="-61" type="line"/>
      <point x="402" y="-87"/>
      <point x="481" y="-121"/>
      <point x="603" y="-172" type="curve" smooth="yes"/>
      <point x="612" y="-176" type="line"/>
      <point x="758" y="-74" type="line"/>
      <point x="751" y="-64" type="line"/>
      <point x="676" y="-105" type="line"/>
      <point x="651" y="-122"/>
      <point x="497" y="-5"/>
      <point x="370" y="-5" type="curve"/>
      <point x="367" y="-3" type="line"/>
      <point x="270" y="-60" type="line"/>
      <point x="203" y="-88" type="line"/>
      <point x="211" y="-95"/>
      <point x="221" y="-98"/>
    </contour>
    <component base="O"/>
  </outline>
</glyph>
<glyph name="R" format="2">
  <advance width="673"/>
  <unicode hex="0052"/>
  <anchor x="342" y="0" name="bottom"/>
  <anchor x="336" y="700" name="top"/>
  <outline>
    <contour>
      <point x="112" y="0" type="line" name="_corner01"/>
      <point x="212" y="0" type="line" name="_corner00"/>
      <point x="212" y="322" type="line"/>
      <point x="309" y="323" type="line"/>
      <point x="492" y="0" type="line"/>
      <point x="634" y="-1" type="line"/>
      <point x="703" y="47" type="line"/>
      <point x="697" y="56" type="line"/>
      <point x="636" y="19" type="line"/>
      <point x="576" y="19"/>
      <point x="445" y="299"/>
      <point x="439" y="312" type="curve"/>
      <point x="345" y="332" type="line"/>
      <point x="427" y="343"/>
      <point x="570" y="400"/>
      <point x="569" y="543" type="curve" smooth="yes"/>
      <point x="568" y="657"/>
      <point x="472" y="704"/>
      <point x="330" y="701" type="curve"/>
      <point x="112" y="700" type="line" name="_corner02"/>
    </contour>
    <contour>
      <point x="212" y="358" type="curve"/>
      <point x="212" y="672" type="line"/>
      <point x="243" y="683"/>
      <point x="280" y="685"/>
      <point x="305" y="685" type="curve"/>
      <point x="401" y="685"/>
      <point x="465" y="614"/>
      <point x="465" y="519" type="curve" smooth="yes"/>
      <point x="465" y="414"/>
      <point x="415" y="347"/>
      <point x="323" y="347" type="curve" smooth="yes"/>
      <point x="303" y="347"/>
      <point x="252" y="348"/>
    </contour>
  </outline>
</glyph>
<glyph name="S" format="2">
  <advance width="560"/>
  <unicode hex="0053"/>
  <anchor x="286" y="0" name="bottom"/>
  <anchor x="294" y="700" name="top"/>
  <outline>
    <contour>
      <point x="51" y="66" type="line"/>
      <point x="76" y="41"/>
      <point x="202" y="-14"/>
      <point x="279" y="-14" type="curve"/>
      <point x="435" y="27"/>
      <point x="525" y="90"/>
      <point x="525" y="184" type="curve" smooth="yes"/>
      <point x="525" y="441"/>
      <point x="147" y="388"/>
      <point x="147" y="580" type="curve" smooth="yes"/>
      <point x="147" y="649"/>
      <point x="208" y="687"/>
      <point x="271" y="687" type="curve" smooth="yes"/>
      <point x="362" y="687"/>
      <point x="437" y="645"/>
      <point x="481" y="511" type="curve"/>
      <point x="492" y="511" type="line"/>
      <point x="492" y="675" type="line"/>
      <point x="447" y="696"/>
      <point x="331" y="713"/>
      <point x="291" y="713" type="curve"/>
      <point x="147" y="688"/>
      <point x="67" y="619"/>
      <point x="67" y="532" type="curve" smooth="yes"/>
      <point x="67" y="291"/>
      <point x="427" y="376"/>
      <point x="427" y="135" type="curve" smooth="yes"/>
      <point x="427" y="51"/>
      <point x="369" y="17"/>
      <point x="306" y="17" type="curve" smooth="yes"/>
      <point x="219" y="17"/>
      <point x="120" y="83"/>
      <point x="61" y="236" type="curve"/>
      <point x="50" y="236" type="line"/>
    </contour>
  </outline>
</glyph>
<glyph name="T" format="2">
  <advance width="658"/>
  <unicode hex="0054"/>
  <anchor x="329" y="0" name="bottom"/>
  <anchor x="329" y="700" name="top"/>
  <outline>
    <contour>
      <point x="278" y="0" type="line" name="_corner01"/>
      <point x="378" y="0" type="line" name="_corner00"/>
      <point x="378" y="700" type="line"/>
      <point x="278" y="700" type="line"/>
    </contour>
    <contour>
      <point x="30" y="515" type="line"/>
      <point x="36" y="515" type="line"/>
      <point x="168" y="699" type="line"/>
      <point x="125" y="700" type="line"/>
      <point x="53" y="704" type="line"/>
    </contour>
    <contour>
      <point x="112" y="681" type="line"/>
      <point x="329" y="681" type="line"/>
      <point x="329" y="700" type="line"/>
      <point x="112" y="700" type="line"/>
    </contour>
    <contour>
      <point x="329" y="681" type="line"/>
      <point x="546" y="681" type="line"/>
      <point x="546" y="700" type="line"/>
      <point x="329" y="700" type="line"/>
    </contour>
    <contour>
      <point x="622" y="515" type="line"/>
      <point x="628" y="515" type="line"/>
      <point x="605" y="704" type="line"/>
      <point x="533" y="700" type="line"/>
      <point x="490" y="699" type="line"/>
    </contour>
  </outline>
</glyph>
<glyph name="U" format="2">
  <advance width="664"/>
  <unicode hex="0055"/>
  <anchor x="332" y="0" name="bottom"/>
  <anchor x="401" y="10" name="ogonek"/>
  <anchor x="362" y="700" name="top"/>
  <anchor x="644" y="700" name="topright"/>
  <outline>
    <contour>
      <point x="199" y="700" type="line" name="_corner03"/>
      <point x="94" y="700" type="line" name="_corner00"/>
      <point x="94" y="225" type="line" smooth="yes"/>
      <point x="94" y="63"/>
      <point x="189" y="-12"/>
      <point x="339" y="-12" type="curve"/>
      <point x="471" y="8"/>
      <point x="576" y="53"/>
      <point x="577" y="213" type="curve" smooth="yes"/>
      <point x="579" y="700" type="line" name="_corner01"/>
      <point x="547" y="700" type="line" name="_corner02"/>
      <point x="549" y="217" type="line" smooth="yes"/>
      <point x="550" y="90"/>
      <point x="479" y="28"/>
      <point x="371" y="28" type="curve" smooth="yes"/>
      <point x="263" y="28"/>
      <point x="199" y="89"/>
      <point x="199" y="262" type="curve" smooth="yes"/>
    </contour>
  </outline>
</glyph>
<glyph name="V" format="2">
  <advance width="667"/>
  <unicode hex="0056"/>
  <anchor x="334" y="0" name="bottom"/>
  <anchor x="334" y="700" name="top"/>
  <outline>
    <contour>
      <point x="289" y="-9" type="line"/>
      <point x="397" y="0" type="line"/>
      <point x="607" y="700" type="line" name="_corner00"/>
      <point x="581" y="700" type="line" name="_corner01"/>
      <point x="384" y="46" type="line"/>
      <point x="381" y="46" type="line"/>
      <point x="166" y="700" type="line" name="_corner02"/>
      <point x="55" y="700" type="line" name="_corner03"/>
    </contour>
  </outline>
</glyph>
<glyph name="W" format="2">
  <advance width="1032"/>
  <unicode hex="0057"/>
  <anchor x="530" y="0" name="bottom"/>
  <anchor x="530" y="700" name="top"/>
  <outline>
    <contour>
      <point x="376" y="0" type="line"/>
      <point x="578" y="700" type="line"/>
      <point x="547" y="700" type="line"/>
      <point x="360" y="51" type="line"/>
      <point x="154" y="700" type="line" name="_corner00"/>
      <point x="43" y="700" type="line" name="_corner01"/>
      <point x="268" y="-7" type="line"/>
    </contour>
    <contour>
      <point x="685" y="-7" type="line"/>
      <point x="788" y="0" type="line"/>
      <point x="985" y="700" type="line" name="_corner02"/>
      <point x="954" y="700" type="line" name="_corner03"/>
      <point x="775" y="52" type="line"/>
      <point x="578" y="700" type="line"/>
      <point x="472" y="700" type="line"/>
    </contour>
  </outline>
</glyph>
<glyph name="X" format="2">
  <advance width="703"/>
  <unicode hex="0058"/>
  <anchor x="353" y="0" name="bottom"/>
  <anchor x="353" y="700" name="top"/>
  <outline>
    <contour>
      <point x="530" y="0" type="line" name="_corner01"/>
      <point x="641" y="0" type="line" name="_corner00"/>
      <point x="179" y="700" type="line" name="_corner04"/>
      <point x="68" y="700" type="line" name="_corner05"/>
    </contour>
    <contour>
      <point x="375" y="379" type="line"/>
      <point x="596" y="700" type="line" name="_corner06"/>
      <point x="565" y="700" type="line" name="_corner07"/>
      <point x="359" y="400" type="line"/>
    </contour>
    <contour>
      <point x="100" y="0" type="line" name="_corner03"/>
      <point x="337" y="355" type="line"/>
      <point x="313" y="367" type="line"/>
      <point x="68" y="0" type="line" name="_corner02"/>
    </contour>
  </outline>
</glyph>
<glyph name="Y" format="2">
  <advance width="630"/>
  <unicode hex="0059"/>
  <anchor x="310" y="0" name="bottom"/>
  <anchor x="310" y="700" name="top"/>
  <anchor x="20" y="700" name="topleft"/>
  <outline>
    <contour>
      <point x="270" y="285" type="line"/>
      <point x="366" y="292" type="line"/>
      <point x="575" y="700" type="line" name="_corner02"/>
      <point x="547" y="700" type="line" name="_corner03"/>
      <point x="354" y="320" type="line"/>
      <point x="142" y="700" type="line" name="_corner00"/>
      <point x="38" y="700" type="line" name="_corner01"/>
    </contour>
    <contour>
      <point x="269" y="0" type="line" name="_corner05"/>
      <point x="369" y="0" type="line" name="_corner04"/>
      <point x="369" y="314" type="line"/>
      <point x="269" y="301" type="line"/>
    </contour>
  </outline>
</glyph>
<glyph name="Z" format="2">
  <advance width="605"/>
  <unicode hex="005A"/>
  <anchor x="301" y="700" name="top"/>
  <outline>
    <contour>
      <point x="147" y="0" type="line"/>
      <point x="556" y="685" type="line"/>
      <point x="558" y="700" type="line"/>
      <point x="448" y="700" type="line"/>
      <point x="43" y="15" type="line"/>
      <point x="41" y="0" type="line"/>
    </contour>
    <contour>
      <point x="57" y="700" type="line"/>
      <point x="57" y="678" type="line"/>
      <point x="462" y="685" type="line"/>
      <point x="448" y="700" type="line"/>
    </contour>
    <contour>
      <point x="139" y="15" type="line"/>
      <point x="141" y="0" type="line"/>
      <point x="564" y="0" type="line"/>
      <point x="564" y="25" type="line"/>
    </contour>
    <contour>
      <point x="564" y="0" type="line"/>
      <point x="564" y="205" type="line"/>
      <point x="555" y="205" type="line"/>
      <point x="462" y="14" type="line"/>
    </contour>
    <contour>
      <point x="57" y="694" type="line"/>
      <point x="57" y="517" type="line"/>
      <point x="66" y="517" type="line"/>
      <point x="159" y="687" type="line"/>
    </contour>
  </outline>
</glyph>
<glyph name="bracketleft" format="2">
  <advance width="235"/>
  <unicode hex="005B"/>
  <outline>
    <contour>
      <point x="30" y="750" type="line"/>
      <point x="30" y="-250" type="line"/>
      <point x="110" y="-250" type="line"/>
      <point x="198" y="-250" type="line"/>
      <point x="198" y="-232" type="line"/>
      <point x="122" y="-224" type="line"/>
      <point x="122" y="724" type="line"/>
      <point x="207" y="732" type="line"/>
      <point x="207" y="750" type="line"/>
      <point x="109" y="750" type="line"/>
    </contour>
  </outline>
</glyph>
<glyph name="asciicircum" format="2">
  <advance width="520"/>
  <unicode hex="005E"/>
  <outline>
    <contour>
      <point x="460" y="488" type="line"/>
      <point x="280" y="772" type="line"/>
      <point x="240" y="772" type="line"/>
      <point x="60" y="488" type="line"/>
      <point x="94" y="470" type="line"/>
      <point x="261" y="740" type="line"/>
      <point x="426" y="470" type="line"/>
    </contour>
  </outline>
</glyph>
<glyph name="underscore" format="2">
  <advance width="446"/>
  <unicode hex="005F"/>
  <outline>
    <contour>
      <point x="30" y="-22" type="line"/>
      <point x="30" y="-62" type="line"/>
      <point x="416" y="-62" type="line"/>
      <point x="416" y="-22" type="line"/>
    </contour>
  </outline>
</glyph>
<glyph name="a" format="2">
  <advance width="537"/>
  <unicode hex="0061"/>
  <anchor x="270" y="0" name="bottom"/>
  <anchor x="480" y="10" name="ogonek"/>
  <anchor x="270" y="470" name="top"/>
  <outline>
    <contour>
      <point x="36" y="221" type="curve" smooth="yes"/>
      <point x="36" y="83"/>
      <point x="106" y="-14"/>
      <point x="226" y="-14" type="curve"/>
      <point x="259" y="6"/>
      <point x="329" y="56"/>
      <point x="374" y="111" type="curve"/>
      <point x="363" y="107" type="line"/>
      <point x="363" y="0" type="line"/>
      <point x="457" y="0" type="line" name="_corner00"/>
      <point x="452" y="456" type="line"/>
      <point x="416" y="468"/>
      <point x="336" y="481"/>
      <point x="277" y="484" type="curve"/>
      <point x="186" y="463"/>
      <point x="36" y="363"/>
    </contour>
    <contour>
      <point x="121" y="258" type="curve" smooth="yes"/>
      <point x="121" y="379"/>
      <point x="182" y="454"/>
      <point x="254" y="454" type="curve" smooth="yes"/>
      <point x="297" y="454"/>
      <point x="331" y="441"/>
      <point x="361" y="414" type="curve"/>
      <point x="361" y="113" type="line"/>
      <point x="325" y="72"/>
      <point x="282" y="50"/>
      <point x="246" y="50" type="curve" smooth="yes"/>
      <point x="183" y="50"/>
      <point x="121" y="134"/>
    </contour>
  </outline>
</glyph>
<glyph name="b" format="2">
  <advance width="507"/>
  <unicode hex="0062"/>
  <anchor x="247" y="0" name="bottom"/>
  <anchor x="247" y="235" name="center"/>
  <anchor x="247" y="470" name="top"/>
  <outline>
    <contour>
      <point x="42" y="41" type="line"/>
      <point x="82" y="7"/>
      <point x="168" y="-14"/>
      <point x="226" y="-14" type="curve"/>
      <point x="285" y="0"/>
      <point x="468" y="87"/>
      <point x="468" y="247" type="curve" smooth="yes"/>
      <point x="468" y="407"/>
      <point x="392" y="484"/>
      <point x="287" y="484" type="curve"/>
      <point x="247" y="468"/>
      <point x="187" y="428"/>
      <point x="142" y="375" type="curve"/>
      <point x="146" y="750" type="line"/>
      <point x="54" y="750" type="line" name="_corner00"/>
      <point x="57" y="53" type="line"/>
      <point x="56" y="52" type="line"/>
    </contour>
    <contour>
      <point x="383" y="211" type="curve" smooth="yes"/>
      <point x="383" y="91"/>
      <point x="317" y="19"/>
      <point x="249" y="19" type="curve" smooth="yes"/>
      <point x="206" y="19"/>
      <point x="175" y="37"/>
      <point x="145" y="74" type="curve"/>
      <point x="145" y="364" type="line"/>
      <point x="181" y="405"/>
      <point x="221" y="420"/>
      <point x="257" y="420" type="curve" smooth="yes"/>
      <point x="316" y="420"/>
      <point x="383" y="336"/>
    </contour>
  </outline>
</glyph>
<glyph name="c" format="2">
  <advance width="467"/>
  <unicode hex="0063"/>
  <anchor x="240" y="0" name="bottom"/>
  <anchor x="252" y="470" name="top"/>
  <outline>
    <contour>
      <point x="352" y="324" type="curve"/>
      <point x="386" y="320" type="line"/>
      <point x="440" y="347" type="line"/>
      <point x="440" y="438"/>
      <point x="347" y="484"/>
      <point x="273" y="484" type="curve"/>
      <point x="181" y="460"/>
      <point x="36" y="388"/>
      <point x="36" y="218" type="curve" smooth="yes"/>
      <point x="36" y="72"/>
      <point x="144" y="-13"/>
      <point x="264" y="-14" type="curve"/>
      <point x="325" y="14"/>
      <point x="428" y="100"/>
      <point x="448" y="120" type="curve"/>
      <point x="441" y="126" type="line"/>
      <point x="404" y="95"/>
      <point x="364" y="70"/>
      <point x="321" y="49" type="curve"/>
      <point x="213" y="49"/>
      <point x="130" y="123"/>
      <point x="130" y="259" type="curve" smooth="yes"/>
      <point x="130" y="374"/>
      <point x="181" y="450"/>
      <point x="237" y="450" type="curve" smooth="yes"/>
      <point x="278" y="450"/>
      <point x="333" y="416"/>
    </contour>
  </outline>
</glyph>
<glyph name="d" format="2">
  <advance width="525"/>
  <unicode hex="0064"/>
  <anchor x="520" y="700" name="topright"/>
  <outline>
    <contour>
      <point x="361" y="0" type="line"/>
      <point x="445" y="0" type="line" name="_corner01"/>
      <point x="453" y="750" type="line"/>
      <point x="363" y="750" type="line" name="_corner00"/>
    </contour>
    <contour>
      <point x="375" y="115" type="curve"/>
      <point x="364" y="121" type="line"/>
      <point x="328" y="80"/>
      <point x="285" y="51"/>
      <point x="249" y="51" type="curve" smooth="yes"/>
      <point x="186" y="51"/>
      <point x="121" y="135"/>
      <point x="121" y="258" type="curve" smooth="yes"/>
      <point x="121" y="377"/>
      <point x="185" y="449"/>
      <point x="257" y="449" type="curve" smooth="yes"/>
      <point x="300" y="449"/>
      <point x="334" y="431"/>
      <point x="364" y="394" type="curve"/>
      <point x="432" y="436" type="line"/>
      <point x="417" y="458"/>
      <point x="376" y="482"/>
      <point x="280" y="482" type="curve"/>
      <point x="218" y="468"/>
      <point x="36" y="401"/>
      <point x="36" y="221" type="curve" smooth="yes"/>
      <point x="36" y="84"/>
      <point x="109" y="-13"/>
      <point x="219" y="-13" type="curve"/>
      <point x="261" y="4"/>
      <point x="330" y="60"/>
    </contour>
  </outline>
</glyph>
<glyph name="e" format="2">
  <advance width="478"/>
  <unicode hex="0065"/>
  <anchor x="326" y="0" name="ogonek"/>
  <anchor x="261" y="470" name="top"/>
  <outline>
    <contour>
      <point x="409" y="263" type="line"/>
      <point x="440" y="281" type="line"/>
      <point x="442" y="391"/>
      <point x="393" y="482"/>
      <point x="262" y="482" type="curve"/>
      <point x="132" y="462"/>
      <point x="36" y="352"/>
      <point x="36" y="222" type="curve" smooth="yes"/>
      <point x="36" y="77"/>
      <point x="130" y="-12"/>
      <point x="284" y="-13" type="curve"/>
      <point x="351" y="30"/>
      <point x="402" y="72"/>
      <point x="458" y="121" type="curve"/>
      <point x="451" y="127" type="line"/>
      <point x="425" y="104"/>
      <point x="362" y="64"/>
      <point x="334" y="49" type="curve"/>
      <point x="196" y="53"/>
      <point x="130" y="136"/>
      <point x="130" y="258" type="curve" smooth="yes"/>
      <point x="130" y="354"/>
      <point x="161" y="454"/>
      <point x="235" y="454" type="curve" smooth="yes"/>
      <point x="309" y="454"/>
      <point x="342" y="336"/>
      <point x="342" y="263" type="curve"/>
    </contour>
    <contour>
      <point x="107" y="273" type="line"/>
      <point x="107" y="261" type="line"/>
      <point x="395" y="264" type="line"/>
      <point x="413" y="286" type="line"/>
    </contour>
  </outline>
</glyph>
<glyph name="f" format="2">
  <advance width="319"/>
  <unicode hex="0066"/>
  <anchor x="160" y="0" name="bottom"/>
  <anchor x="160" y="750" name="top"/>
  <outline>
    <contour>
      <point x="271" y="648" type="curve"/>
      <point x="303" y="638" type="line"/>
      <point x="366" y="681" type="line"/>
      <point x="351" y="719"/>
      <point x="311" y="746"/>
      <point x="263" y="750" type="curve"/>
      <point x="182" y="710"/>
      <point x="115" y="637"/>
      <point x="85" y="534" type="curve"/>
      <point x="85" y="470" type="line"/>
      <point x="18" y="466" type="line"/>
      <point x="18" y="452" type="line"/>
      <point x="85" y="452" type="line"/>
      <point x="85" y="0" type="line" name="_corner01"/>
      <point x="174" y="0" type="line" name="_corner00"/>
      <point x="174" y="456" type="line"/>
      <point x="280" y="453" type="line"/>
      <point x="318" y="458" type="line"/>
      <point x="318" y="470" type="line"/>
      <point x="174" y="470" type="line"/>
      <point x="174" y="665" type="line"/>
      <point x="190" y="687"/>
      <point x="205" y="692"/>
      <point x="219" y="692" type="curve" smooth="yes"/>
      <point x="238" y="692"/>
      <point x="261" y="682"/>
    </contour>
  </outline>
</glyph>
<glyph name="g" format="2">
  <advance width="512"/>
  <unicode hex="0067"/>
  <anchor x="257" y="-250" name="bottom"/>
  <anchor x="257" y="470" name="top"/>
  <outline>
    <contour>
      <point x="232" y="136" type="curve"/>
      <point x="266" y="149"/>
      <point x="430" y="184"/>
      <point x="430" y="322" type="curve" smooth="yes"/>
      <point x="430" y="418"/>
      <point x="357" y="486"/>
      <point x="255" y="485" type="curve"/>
      <point x="218" y="476"/>
      <point x="52" y="424"/>
      <point x="52" y="299" type="curve" smooth="yes"/>
      <point x="52" y="206"/>
      <point x="117" y="136"/>
    </contour>
    <contour>
      <point x="255" y="162" type="curve" smooth="yes"/>
      <point x="190" y="162"/>
      <point x="140" y="233"/>
      <point x="140" y="326" type="curve" smooth="yes"/>
      <point x="140" y="400"/>
      <point x="173" y="455"/>
      <point x="223" y="455" type="curve" smooth="yes"/>
      <point x="288" y="455"/>
      <point x="340" y="387"/>
      <point x="340" y="295" type="curve" smooth="yes"/>
      <point x="340" y="219"/>
      <point x="307" y="162"/>
    </contour>
    <contour>
      <point x="140" y="162" type="line"/>
      <point x="118" y="133"/>
      <point x="81" y="106"/>
      <point x="59" y="67" type="curve"/>
      <point x="58" y="35"/>
      <point x="99" y="-5"/>
      <point x="122" y="-5" type="curve" smooth="yes"/>
      <point x="304" y="-5"/>
      <point x="403" y="-14"/>
      <point x="403" y="-92" type="curve" smooth="yes"/>
      <point x="403" y="-161"/>
      <point x="330" y="-188"/>
      <point x="255" y="-188" type="curve" smooth="yes"/>
      <point x="171" y="-188"/>
      <point x="103" y="-143"/>
      <point x="103" y="-83" type="curve" smooth="yes"/>
      <point x="103" y="-50"/>
      <point x="122" y="-20"/>
      <point x="153" y="18" type="curve"/>
      <point x="143" y="21" type="line"/>
      <point x="119" y="-15"/>
      <point x="55" y="-42"/>
      <point x="10" y="-79" type="curve"/>
      <point x="10" y="-207"/>
      <point x="149" y="-226"/>
      <point x="251" y="-226" type="curve"/>
      <point x="311" y="-207"/>
      <point x="478" y="-163"/>
      <point x="478" y="-49" type="curve" smooth="yes"/>
      <point x="478" y="136"/>
      <point x="117" y="40"/>
      <point x="117" y="97" type="curve" smooth="yes"/>
      <point x="117" y="117"/>
      <point x="136" y="138"/>
      <point x="157" y="161" type="curve"/>
    </contour>
    <contour>
      <point x="497" y="493" type="line"/>
      <point x="416" y="529" type="line"/>
      <point x="405" y="473"/>
      <point x="386" y="461"/>
      <point x="343" y="461" type="curve"/>
      <point x="367" y="436" type="line"/>
      <point x="379" y="452" type="line"/>
      <point x="453" y="422" type="line"/>
      <point x="465" y="422" type="line"/>
    </contour>
  </outline>
</glyph>
<glyph name="h" format="2">
  <advance width="561"/>
  <unicode hex="0068"/>
  <outline>
    <contour>
      <point x="163" y="368" type="curve"/>
      <point x="168" y="362" type="line"/>
      <point x="209" y="397"/>
      <point x="255" y="415"/>
      <point x="294" y="415" type="curve" smooth="yes"/>
      <point x="356" y="415"/>
      <point x="387" y="379"/>
      <point x="387" y="284" type="curve" smooth="yes"/>
      <point x="387" y="0" type="line" name="_corner00"/>
      <point x="476" y="0" type="line" name="_corner01"/>
      <point x="476" y="320" type="line" smooth="yes"/>
      <point x="476" y="425"/>
      <point x="425" y="484"/>
      <point x="320" y="484" type="curve"/>
      <point x="275" y="463"/>
      <point x="211" y="417"/>
    </contour>
    <contour>
      <point x="173" y="0" type="line" name="_corner04"/>
      <point x="173" y="371" type="line"/>
      <point x="169" y="371" type="line"/>
      <point x="169" y="750" type="line"/>
      <point x="84" y="750" type="line" name="_corner02"/>
      <point x="84" y="0" type="line" name="_corner03"/>
    </contour>
  </outline>
</glyph>
<glyph name="k" format="2">
  <advance width="559"/>
  <unicode hex="006B"/>
  <anchor x="278" y="0" name="bottom"/>
  <anchor x="260" y="750" name="top"/>
  <outline>
    <contour>
      <point x="84" y="0" type="line" name="_corner02"/>
      <point x="173" y="0" type="line" name="_corner01"/>
      <point x="173" y="225" type="line"/>
      <point x="209" y="257" type="line"/>
      <point x="399" y="0" type="line" name="_corner03"/>
      <point x="496" y="0" type="line"/>
      <point x="549" y="0" type="line"/>
      <point x="549" y="6" type="line"/>
      <point x="483" y="27" type="line"/>
      <point x="270" y="320" type="line"/>
      <point x="254" y="296" type="line"/>
      <point x="432" y="446" type="line"/>
      <point x="516" y="463" type="line"/>
      <point x="516" y="470" type="line"/>
      <point x="337" y="470" type="line"/>
      <point x="337" y="463" type="line"/>
      <point x="402" y="447" type="line"/>
      <point x="403" y="447" type="line"/>
      <point x="173" y="245" type="line"/>
      <point x="172" y="245" type="line"/>
      <point x="177" y="750" type="line"/>
      <point x="84" y="750" type="line" name="_corner00"/>
    </contour>
  </outline>
</glyph>
<glyph name="l" format="2">
  <advance width="253"/>
  <unicode hex="006C"/>
  <anchor x="123" y="0" name="bottom"/>
  <anchor x="123" y="750" name="top"/>
  <anchor x="243" y="700" name="topright"/>
  <outline>
    <contour>
      <point x="84" y="0" type="line" name="_corner02"/>
      <point x="173" y="0" type="line" name="_corner00"/>
      <point x="173" y="750" type="line"/>
      <point x="84" y="750" type="line" name="_corner01"/>
    </contour>
  </outline>
</glyph>
<glyph name="m" format="2">
  <advance width="856"/>
  <unicode hex="006D"/>
  <anchor x="429" y="0" name="bottom"/>
  <anchor x="429" y="470" name="top"/>
  <outline>
    <contour>
      <point x="180" y="470" type="line"/>
      <point x="95" y="470" type="line" name="_corner00"/>
      <point x="95" y="0" type="line" name="_corner01"/>
      <point x="184" y="0" type="line" name="_corner02"/>
      <point x="184" y="362" type="line"/>
      <point x="217" y="394"/>
      <point x="265" y="413"/>
      <point x="305" y="413" type="curve" smooth="yes"/>
      <point x="367" y="413"/>
      <point x="398" y="377"/>
      <point x="398" y="282" type="curve" smooth="yes"/>
      <point x="398" y="0" type="line" name="_corner03"/>
      <point x="487" y="0" type="line" name="_corner04"/>
      <point x="487" y="318" type="line" smooth="yes"/>
      <point x="487" y="423"/>
      <point x="436" y="482"/>
      <point x="331" y="482" type="curve"/>
      <point x="285" y="461"/>
      <point x="221" y="414"/>
      <point x="181" y="369" type="curve"/>
      <point x="180" y="369" type="line"/>
    </contour>
    <contour>
      <point x="466" y="370" type="curve"/>
      <point x="470" y="364" type="line"/>
      <point x="503" y="395"/>
      <point x="550" y="413"/>
      <point x="589" y="413" type="curve" smooth="yes"/>
      <point x="651" y="413"/>
      <point x="682" y="377"/>
      <point x="682" y="282" type="curve" smooth="yes"/>
      <point x="682" y="0" type="line" name="_corner05"/>
      <point x="771" y="0" type="line" name="_corner06"/>
      <point x="771" y="318" type="line" smooth="yes"/>
      <point x="771" y="423"/>
      <point x="720" y="482"/>
      <point x="615" y="482" type="curve"/>
      <point x="569" y="461"/>
      <point x="506" y="414"/>
    </contour>
  </outline>
</glyph>
<glyph name="n" format="2">
  <advance width="572"/>
  <unicode hex="006E"/>
  <anchor x="293" y="0" name="bottom"/>
  <anchor x="287" y="470" name="top"/>
  <outline>
    <contour>
      <point x="398" y="284" type="curve" smooth="yes"/>
      <point x="398" y="0" type="line" name="_corner03"/>
      <point x="487" y="0" type="line" name="_corner04"/>
      <point x="487" y="320" type="line" smooth="yes"/>
      <point x="487" y="425"/>
      <point x="436" y="484"/>
      <point x="331" y="484" type="curve"/>
      <point x="286" y="463"/>
      <point x="222" y="417"/>
      <point x="174" y="368" type="curve"/>
      <point x="179" y="362" type="line"/>
      <point x="220" y="397"/>
      <point x="266" y="415"/>
      <point x="305" y="415" type="curve" smooth="yes"/>
      <point x="367" y="415"/>
      <point x="398" y="379"/>
    </contour>
    <contour>
      <point x="95" y="0" type="line" name="_corner01"/>
      <point x="184" y="0" type="line" name="_corner02"/>
      <point x="184" y="371" type="line"/>
      <point x="180" y="371" type="line"/>
      <point x="180" y="470" type="line"/>
      <point x="95" y="470" type="line" name="_corner00"/>
    </contour>
  </outline>
</glyph>
<glyph name="o" format="2">
  <advance width="541"/>
  <unicode hex="006F"/>
  <anchor x="272" y="470" name="top"/>
  <outline>
    <contour>
      <point x="258" y="-14" type="curve"/>
      <point x="301" y="4"/>
      <point x="502" y="55"/>
      <point x="502" y="252" type="curve" smooth="yes"/>
      <point x="502" y="389"/>
      <point x="414" y="486"/>
      <point x="286" y="484" type="curve"/>
      <point x="240" y="471"/>
      <point x="36" y="398"/>
      <point x="36" y="219" type="curve" smooth="yes"/>
      <point x="36" y="86"/>
      <point x="115" y="-14"/>
    </contour>
    <contour>
      <point x="288" y="17" type="curve" smooth="yes"/>
      <point x="200" y="17"/>
      <point x="134" y="121"/>
      <point x="134" y="258" type="curve" smooth="yes"/>
      <point x="134" y="368"/>
      <point x="178" y="448"/>
      <point x="244" y="448" type="curve" smooth="yes"/>
      <point x="333" y="448"/>
      <point x="402" y="347"/>
      <point x="402" y="213" type="curve" smooth="yes"/>
      <point x="402" y="102"/>
      <point x="357" y="17"/>
    </contour>
  </outline>
</glyph>
<glyph name="q" format="2">
  <advance width="521"/>
  <unicode hex="0071"/>
  <anchor x="267" y="0" name="bottom"/>
  <anchor x="267" y="470" name="top"/>
  <outline>
    <contour>
      <point x="475" y="429" type="line"/>
      <point x="435" y="463"/>
      <point x="346" y="484"/>
      <point x="288" y="484" type="curve"/>
      <point x="226" y="470"/>
      <point x="36" y="383"/>
      <point x="36" y="222" type="curve" smooth="yes"/>
      <point x="36" y="63"/>
      <point x="116" y="-14"/>
      <point x="227" y="-14" type="curve"/>
      <point x="267" y="2"/>
      <point x="331" y="62"/>
      <point x="376" y="115" type="curve"/>
      <point x="370" y="-250" type="line" name="_corner00"/>
      <point x="455" y="-250" type="line" name="_corner01"/>
      <point x="458" y="417" type="line"/>
      <point x="461" y="418" type="line"/>
    </contour>
    <contour>
      <point x="121" y="258" type="curve" smooth="yes"/>
      <point x="121" y="379"/>
      <point x="192" y="451"/>
      <point x="265" y="451" type="curve" smooth="yes"/>
      <point x="308" y="451"/>
      <point x="342" y="433"/>
      <point x="372" y="396" type="curve"/>
      <point x="371" y="125" type="line"/>
      <point x="335" y="84"/>
      <point x="293" y="50"/>
      <point x="257" y="50" type="curve" smooth="yes"/>
      <point x="193" y="50"/>
      <point x="121" y="134"/>
    </contour>
  </outline>
</glyph>
<glyph name="r" format="2">
  <advance width="384"/>
  <unicode hex="0072"/>
  <anchor x="184" y="0" name="bottom"/>
  <anchor x="223" y="470" name="top"/>
  <outline>
    <contour>
      <point x="184" y="0" type="line" name="_corner02"/>
      <point x="184" y="375" type="line"/>
      <point x="180" y="375" type="line"/>
      <point x="180" y="470" type="line"/>
      <point x="95" y="470" type="line" name="_corner00"/>
      <point x="95" y="0" type="line" name="_corner01"/>
    </contour>
    <contour>
      <point x="240" y="407" type="curve" smooth="yes"/>
      <point x="258" y="407"/>
      <point x="279" y="397"/>
      <point x="292" y="371" type="curve"/>
      <point x="321" y="366" type="line"/>
      <point x="382" y="418" type="line"/>
      <point x="359" y="460"/>
      <point x="330" y="480"/>
      <point x="285" y="484" type="curve"/>
      <point x="224" y="450"/>
      <point x="160" y="383"/>
      <point x="160" y="266" type="curve"/>
      <point x="183" y="360" type="line"/>
      <point x="197" y="383"/>
      <point x="211" y="407"/>
    </contour>
  </outline>
</glyph>
<glyph name="s" format="2">
  <advance width="418"/>
  <unicode hex="0073"/>
  <anchor x="203" y="0" name="bottom"/>
  <anchor x="203" y="470" name="top"/>
  <outline>
    <contour>
      <point x="47" y="45" type="line"/>
      <point x="80" y="15"/>
      <point x="137" y="-16"/>
      <point x="207" y="-16" type="curve"/>
      <point x="316" y="13"/>
      <point x="382" y="43"/>
      <point x="382" y="127" type="curve" smooth="yes"/>
      <point x="382" y="269"/>
      <point x="113" y="298"/>
      <point x="113" y="393" type="curve" smooth="yes"/>
      <point x="113" y="427"/>
      <point x="143" y="456"/>
      <point x="189" y="457" type="curve" smooth="yes"/>
      <point x="258" y="457"/>
      <point x="305" y="398"/>
      <point x="349" y="340" type="curve"/>
      <point x="357" y="343" type="line"/>
      <point x="358" y="447" type="line"/>
      <point x="311" y="475"/>
      <point x="259" y="486"/>
      <point x="207" y="486" type="curve"/>
      <point x="107" y="457"/>
      <point x="48" y="411"/>
      <point x="48" y="342" type="curve" smooth="yes"/>
      <point x="48" y="217"/>
      <point x="305" y="205"/>
      <point x="305" y="84" type="curve" smooth="yes"/>
      <point x="305" y="33"/>
      <point x="261" y="11"/>
      <point x="230" y="11" type="curve" smooth="yes"/>
      <point x="163" y="11"/>
      <point x="94" y="102"/>
      <point x="57" y="167" type="curve"/>
      <point x="47" y="162" type="line"/>
    </contour>
  </outline>
</glyph>
<glyph name="t" format="2">
  <advance width="331"/>
  <unicode hex="0074"/>
  <anchor x="162" y="0" name="bottom"/>
  <anchor x="224" y="700" name="topright"/>
  <outline>
    <contour>
      <point x="0" y="439" type="line"/>
      <point x="70" y="439" type="line"/>
      <point x="70" y="86" type="line" smooth="yes"/>
      <point x="70" y="3"/>
      <point x="120" y="-13"/>
      <point x="193" y="-13" type="curve"/>
      <point x="243" y="18"/>
      <point x="269" y="38"/>
      <point x="321" y="80" type="curve"/>
      <point x="315" y="86" type="line"/>
      <point x="267" y="53"/>
      <point x="247" y="45"/>
      <point x="215" y="45" type="curve" smooth="yes"/>
      <point x="186" y="46"/>
      <point x="159" y="74"/>
      <point x="159" y="126" type="curve" smooth="yes"/>
      <point x="159" y="454" type="line"/>
      <point x="277" y="451" type="line"/>
      <point x="315" y="456" type="line"/>
      <point x="315" y="470" type="line"/>
      <point x="159" y="470" type="line"/>
      <point x="163" y="594" type="line"/>
      <point x="151" y="595" type="line"/>
      <point x="79" y="484" type="line"/>
      <point x="0" y="449" type="line"/>
    </contour>
  </outline>
</glyph>
<glyph name="u" format="2">
  <advance width="535"/>
  <unicode hex="0075"/>
  <anchor x="272" y="0" name="bottom"/>
  <anchor x="486" y="10" name="ogonek"/>
  <anchor x="272" y="470" name="top"/>
  <anchor x="519" y="470" name="topright"/>
  <outline>
    <contour>
      <point x="370" y="0" type="line"/>
      <point x="455" y="0" type="line" name="_corner00"/>
      <point x="455" y="470" type="line"/>
      <point x="366" y="470" type="line" name="_corner02"/>
      <point x="366" y="106" type="line"/>
      <point x="333" y="74"/>
      <point x="285" y="55"/>
      <point x="245" y="55" type="curve" smooth="yes"/>
      <point x="183" y="55"/>
      <point x="152" y="91"/>
      <point x="152" y="186" type="curve" smooth="yes"/>
      <point x="152" y="470" type="line"/>
      <point x="63" y="470" type="line" name="_corner01"/>
      <point x="63" y="150" type="line" smooth="yes"/>
      <point x="63" y="45"/>
      <point x="114" y="-14"/>
      <point x="219" y="-14" type="curve"/>
      <point x="265" y="7"/>
      <point x="329" y="54"/>
      <point x="369" y="99" type="curve"/>
      <point x="370" y="99" type="line"/>
    </contour>
  </outline>
</glyph>
<glyph name="v" format="2">
  <advance width="478"/>
  <unicode hex="0076"/>
  <anchor x="242" y="0" name="bottom"/>
  <anchor x="242" y="470" name="top"/>
  <outline>
    <contour>
      <point x="294" y="-2" type="line"/>
      <point x="438" y="470" type="line" name="_corner00"/>
      <point x="416" y="470" type="line" name="_corner01"/>
      <point x="276" y="0" type="line"/>
    </contour>
    <contour>
      <point x="204" y="-14" type="line"/>
      <point x="293" y="-2" type="line"/>
      <point x="294" y="-2" type="line"/>
      <point x="295" y="5" type="line"/>
      <point x="131" y="470" type="line" name="_corner02"/>
      <point x="35" y="470" type="line" name="_corner03"/>
    </contour>
  </outline>
</glyph>
<glyph name="w" format="2">
  <advance width="723"/>
  <unicode hex="0077"/>
  <anchor x="370" y="0" name="bottom"/>
  <anchor x="370" y="470" name="top"/>
  <outline>
    <contour>
      <point x="120" y="470" type="line" name="_corner01"/>
      <point x="24" y="470" type="line" name="_corner00"/>
      <point x="180" y="-14" type="line"/>
      <point x="272" y="-2" type="line"/>
      <point x="373" y="361" type="line"/>
      <point x="357" y="328" type="line"/>
      <point x="474" y="-14" type="line"/>
      <point x="557" y="-2" type="line"/>
      <point x="688" y="470" type="line" name="_corner02"/>
      <point x="671" y="470" type="line" name="_corner03"/>
      <point x="548" y="27" type="line"/>
      <point x="407" y="470" type="line"/>
      <point x="309" y="470" type="line"/>
      <point x="352" y="345" type="line"/>
      <point x="263" y="27" type="line"/>
    </contour>
  </outline>
</glyph>
<glyph name="x" format="2">
  <advance width="500"/>
  <unicode hex="0078"/>
  <anchor x="256" y="0" name="bottom"/>
  <anchor x="256" y="470" name="top"/>
  <outline>
    <contour>
      <point x="63" y="0" type="line" name="_corner07"/>
      <point x="215" y="216" type="line"/>
      <point x="49" y="470" type="line" name="_corner00"/>
      <point x="154" y="470" type="line" name="_corner01"/>
      <point x="276" y="285" type="line"/>
      <point x="404" y="470" type="line" name="_corner02"/>
      <point x="425" y="470" type="line" name="_corner03"/>
      <point x="286" y="269" type="line"/>
      <point x="461" y="0" type="line" name="_corner04"/>
      <point x="356" y="0" type="line" name="_corner05"/>
      <point x="226" y="200" type="line"/>
      <point x="84" y="0" type="line" name="_corner06"/>
    </contour>
  </outline>
</glyph>
<glyph name="y" format="2">
  <advance width="459"/>
  <unicode hex="0079"/>
  <anchor x="231" y="0" name="bottom"/>
  <anchor x="245" y="470" name="top"/>
  <outline>
    <contour>
      <point x="185" y="13" type="line"/>
      <point x="270" y="50" type="line"/>
      <point x="107" y="470" type="line" name="_corner01"/>
      <point x="9" y="470" type="line" name="_corner00"/>
    </contour>
    <contour>
      <point x="186" y="-55" type="move"/>
    </contour>
    <contour>
      <point x="68" y="-137" type="curve"/>
      <point x="35" y="-128" type="line"/>
      <point x="-24" y="-182" type="line"/>
      <point x="2" y="-229"/>
      <point x="24" y="-240"/>
      <point x="62" y="-249" type="curve"/>
      <point x="127" y="-237"/>
      <point x="220" y="-148"/>
      <point x="243" y="-79" type="curve" smooth="yes"/>
      <point x="423" y="470" type="line" name="_corner02"/>
      <point x="400" y="470" type="line" name="_corner03"/>
      <point x="243" y="-11" type="line" smooth="yes"/>
      <point x="196" y="-155"/>
      <point x="137" y="-225"/>
    </contour>
  </outline>
</glyph>
<glyph name="z" format="2">
  <advance width="440"/>
  <unicode hex="007A"/>
  <anchor x="227" y="470" name="top"/>
  <outline>
    <contour>
      <point x="40" y="14" type="line"/>
      <point x="52" y="0" type="line"/>
      <point x="405" y="0" type="line"/>
      <point x="407" y="143" type="line"/>
      <point x="398" y="145" type="line"/>
      <point x="335" y="11" type="line"/>
      <point x="146" y="11" type="line"/>
      <point x="409" y="458" type="line"/>
      <point x="401" y="470" type="line"/>
      <point x="51" y="470" type="line"/>
      <point x="51" y="464" type="line"/>
      <point x="47" y="337" type="line"/>
      <point x="56" y="335" type="line"/>
      <point x="121" y="459" type="line"/>
      <point x="313" y="459" type="line"/>
    </contour>
  </outline>
</glyph>
<glyph name="braceleft" format="2">
  <advance width="267"/>
  <unicode hex="007B"/>
  <outline>
    <contour>
      <point x="25" y="293" type="curve"/>
      <point x="25" y="282" type="line"/>
      <point x="71" y="278"/>
      <point x="88" y="255"/>
      <point x="88" y="226" type="curve" smooth="yes"/>
      <point x="88" y="-59" type="line" smooth="yes"/>
      <point x="88" y="-171"/>
      <point x="159" y="-246"/>
      <point x="224" y="-250" type="curve"/>
      <point x="227" y="-237" type="line"/>
      <point x="186" y="-229"/>
      <point x="176" y="-185"/>
      <point x="176" y="-92" type="curve" smooth="yes"/>
      <point x="176" y="-40"/>
      <point x="176" y="23"/>
      <point x="176" y="145" type="curve" smooth="yes"/>
      <point x="176" y="222"/>
      <point x="122" y="266"/>
      <point x="89" y="277" type="curve"/>
      <point x="120" y="293"/>
      <point x="176" y="333"/>
      <point x="176" y="450" type="curve" smooth="yes"/>
      <point x="176" y="564" type="line" smooth="yes"/>
      <point x="176" y="689"/>
      <point x="198" y="731"/>
      <point x="240" y="748" type="curve"/>
      <point x="235" y="760" type="line"/>
      <point x="159" y="743"/>
      <point x="88" y="691"/>
      <point x="88" y="509" type="curve" smooth="yes"/>
      <point x="88" y="352" type="line" smooth="yes"/>
      <point x="88" y="313"/>
      <point x="70" y="299"/>
    </contour>
  </outline>
</glyph>
<glyph name="bar" format="2">
  <advance width="238"/>
  <unicode hex="007C"/>
  <outline>
    <contour>
      <point x="100" y="-250" type="line"/>
      <point x="138" y="-250" type="line"/>
      <point x="138" y="750" type="line"/>
      <point x="100" y="750" type="line"/>
    </contour>
  </outline>
</glyph>
<glyph name="asciitilde" format="2">
  <advance width="476"/>
  <unicode hex="007E"/>
  <outline>
    <contour>
      <point x="50" y="176" type="curve"/>
      <point x="88" y="176" type="line"/>
      <point x="90" y="225"/>
      <point x="114" y="256"/>
      <point x="150" y="256" type="curve" smooth="yes"/>
      <point x="208" y="256"/>
      <point x="254" y="176"/>
      <point x="326" y="176" type="curve" smooth="yes"/>
      <point x="387" y="176"/>
      <point x="426" y="223"/>
      <point x="426" y="296" type="curve"/>
      <point x="388" y="296" type="line"/>
      <point x="387" y="247"/>
      <point x="363" y="216"/>
      <point x="326" y="216" type="curve" smooth="yes"/>
      <point x="268" y="216"/>
      <point x="222" y="296"/>
      <point x="150" y="296" type="curve" smooth="yes"/>
      <point x="89" y="296"/>
      <point x="50" y="249"/>
    </contour>
  </outline>
</glyph>
<glyph name="cent" format="2">
  <advance width="467"/>
  <unicode hex="00A2"/>
  <outline>
    <contour>
      <point x="251" y="788" type="line"/>
      <point x="228" y="788" type="line"/>
      <point x="228" y="-106" type="line"/>
      <point x="251" y="-106" type="line"/>
    </contour>
    <component base="c" yOffset="100"/>
  </outline>
</glyph>
<glyph name="sterling" format="2">
  <advance width="566"/>
  <unicode hex="00A3"/>
  <outline>
    <contour>
      <point x="67" y="398"/>
      <point x="174" y="326"/>
      <point x="171" y="231" type="curve" smooth="yes"/>
      <point x="168" y="151"/>
      <point x="92" y="81"/>
      <point x="21" y="-26" type="curve"/>
      <point x="39" y="-39" type="line"/>
      <point x="68" y="3" type="line"/>
      <point x="192" y="65"/>
      <point x="328" y="5"/>
      <point x="392" y="-29" type="curve"/>
      <point x="528" y="123" type="line"/>
      <point x="518" y="133" type="line"/>
      <point x="425" y="65" type="line"/>
      <point x="356" y="98"/>
      <point x="215" y="111"/>
      <point x="128" y="79" type="curve"/>
      <point x="125" y="82" type="line"/>
      <point x="188" y="169"/>
      <point x="252" y="239"/>
      <point x="252" y="312" type="curve" smooth="yes"/>
      <point x="252" y="392"/>
      <point x="166" y="496"/>
      <point x="166" y="572" type="curve" smooth="yes"/>
      <point x="166" y="622"/>
      <point x="199" y="663"/>
      <point x="282" y="663" type="curve" smooth="yes"/>
      <point x="347" y="663"/>
      <point x="383" y="623"/>
      <point x="397" y="594" type="curve"/>
      <point x="416" y="590" type="line"/>
      <point x="478" y="651" type="line"/>
      <point x="435" y="700"/>
      <point x="393" y="714"/>
      <point x="344" y="714" type="curve"/>
      <point x="179" y="686"/>
      <point x="95" y="572"/>
      <point x="67" y="515" type="curve"/>
    </contour>
    <contour>
      <point x="31" y="360" type="line"/>
      <point x="31" y="337" type="line"/>
      <point x="442" y="337" type="line"/>
      <point x="442" y="360" type="line"/>
    </contour>
  </outline>
</glyph>
<glyph name="currency" format="2">
  <advance width="400"/>
  <unicode hex="00A4"/>
  <outline>
    <contour>
      <point x="240" y="355" type="line"/>
      <point x="269" y="326" type="line"/>
      <point x="369" y="428" type="line"/>
      <point x="340" y="457" type="line"/>
    </contour>
    <contour>
      <point x="131" y="329" type="line"/>
      <point x="160" y="357" type="line"/>
      <point x="60" y="457" type="line"/>
      <point x="31" y="428" type="line"/>
    </contour>
    <contour>
      <point x="272" y="240" type="line"/>
      <point x="242" y="212" type="line"/>
      <point x="340" y="112" type="line"/>
      <point x="370" y="142" type="line"/>
    </contour>
    <contour>
      <point x="162" y="210" type="line"/>
      <point x="134" y="239" type="line"/>
      <point x="30" y="142" type="line"/>
      <point x="60" y="112" type="line"/>
    </contour>
    <contour>
      <point x="200" y="165" type="curve" smooth="yes"/>
      <point x="266" y="165"/>
      <point x="317" y="216"/>
      <point x="317" y="282" type="curve" smooth="yes"/>
      <point x="317" y="348"/>
      <point x="266" y="399"/>
      <point x="200" y="399" type="curve" smooth="yes"/>
      <point x="134" y="399"/>
      <point x="83" y="348"/>
      <point x="83" y="282" type="curve" smooth="yes"/>
      <point x="83" y="216"/>
      <point x="134" y="165"/>
    </contour>
    <contour>
      <point x="200" y="208" type="curve" smooth="yes"/>
      <point x="159" y="208"/>
      <point x="126" y="240"/>
      <point x="126" y="282" type="curve" smooth="yes"/>
      <point x="126" y="323"/>
      <point x="159" y="356"/>
      <point x="200" y="356" type="curve" smooth="yes"/>
      <point x="241" y="356"/>
      <point x="274" y="323"/>
      <point x="274" y="282" type="curve" smooth="yes"/>
      <point x="274" y="240"/>
      <point x="241" y="208"/>
    </contour>
  </outline>
</glyph>
<glyph name="yen" format="2">
  <advance width="630"/>
  <unicode hex="00A5"/>
  <outline>
    <contour>
      <point x="132" y="290" type="line"/>
      <point x="132" y="267" type="line"/>
      <point x="506" y="267" type="line"/>
      <point x="506" y="290" type="line"/>
    </contour>
    <contour>
      <point x="132" y="220" type="line"/>
      <point x="132" y="197" type="line"/>
      <point x="506" y="197" type="line"/>
      <point x="506" y="220" type="line"/>
    </contour>
    <component base="Y"/>
  </outline>
</glyph>
<glyph name="brokenbar" format="2">
  <advance width="238"/>
  <unicode hex="00A6"/>
  <outline>
    <contour>
      <point x="100" y="310" type="line"/>
      <point x="138" y="310" type="line"/>
      <point x="138" y="750" type="line"/>
      <point x="100" y="750" type="line"/>
    </contour>
    <contour>
      <point x="100" y="-250" type="line"/>
      <point x="138" y="-250" type="line"/>
      <point x="138" y="190" type="line"/>
      <point x="100" y="190" type="line"/>
    </contour>
  </outline>
</glyph>
<glyph name="section" format="2">
  <advance width="475"/>
  <unicode hex="00A7"/>
  <outline>
    <contour>
      <point x="64" y="9" type="line"/>
      <point x="107" y="-24"/>
      <point x="175" y="-57"/>
      <point x="232" y="-57" type="curve"/>
      <point x="346" y="-38"/>
      <point x="415" y="12"/>
      <point x="415" y="92" type="curve" smooth="yes"/>
      <point x="415" y="167"/>
      <point x="350" y="204"/>
      <point x="282" y="241" type="curve"/>
      <point x="366" y="266"/>
      <point x="415" y="315"/>
      <point x="415" y="379" type="curve" smooth="yes"/>
      <point x="415" y="513"/>
      <point x="137" y="554"/>
      <point x="137" y="669" type="curve" smooth="yes"/>
      <point x="137" y="718"/>
      <point x="185" y="746"/>
      <point x="225" y="746" type="curve" smooth="yes"/>
      <point x="268" y="745"/>
      <point x="327" y="716"/>
      <point x="379" y="616" type="curve"/>
      <point x="387" y="616" type="line"/>
      <point x="384" y="730" type="line"/>
      <point x="355" y="745"/>
      <point x="269" y="765"/>
      <point x="247" y="765" type="curve"/>
      <point x="140" y="746"/>
      <point x="77" y="697"/>
      <point x="77" y="628" type="curve" smooth="yes"/>
      <point x="77" y="557"/>
      <point x="143" y="515"/>
      <point x="214" y="474" type="curve"/>
      <point x="118" y="454"/>
      <point x="60" y="407"/>
      <point x="60" y="344" type="curve" smooth="yes"/>
      <point x="60" y="212"/>
      <point x="333" y="169"/>
      <point x="333" y="41" type="curve" smooth="yes"/>
      <point x="333" y="-10"/>
      <point x="299" y="-39"/>
      <point x="252" y="-39" type="curve" smooth="yes"/>
      <point x="198" y="-38"/>
      <point x="151" y="-14"/>
      <point x="71" y="134" type="curve"/>
      <point x="63" y="134" type="line"/>
    </contour>
    <contour>
      <point x="128" y="388" type="curve" smooth="yes"/>
      <point x="128" y="430"/>
      <point x="168" y="459"/>
      <point x="207" y="459" type="curve" smooth="yes"/>
      <point x="222" y="459"/>
      <point x="239" y="455"/>
      <point x="254" y="451" type="curve"/>
      <point x="302" y="422"/>
      <point x="340" y="392"/>
      <point x="340" y="344" type="curve" smooth="yes"/>
      <point x="340" y="286"/>
      <point x="307" y="255"/>
      <point x="267" y="249" type="curve"/>
      <point x="197" y="288"/>
      <point x="128" y="328"/>
    </contour>
  </outline>
</glyph>
<glyph name="copyright" format="2">
  <advance width="805"/>
  <unicode hex="00A9"/>
  <anchor x="366" y="127" name="bottom"/>
  <anchor x="385" y="574" name="top"/>
  <outline>
    <contour>
      <point x="401" y="-14" type="curve" smooth="yes"/>
      <point x="602" y="-14"/>
      <point x="766" y="149"/>
      <point x="766" y="349" type="curve" smooth="yes"/>
      <point x="766" y="551"/>
      <point x="602" y="715"/>
      <point x="401" y="715" type="curve" smooth="yes"/>
      <point x="200" y="715"/>
      <point x="36" y="551"/>
      <point x="36" y="349" type="curve" smooth="yes"/>
      <point x="36" y="149"/>
      <point x="200" y="-14"/>
    </contour>
    <contour>
      <point x="401" y="29" type="curve" smooth="yes"/>
      <point x="220" y="29"/>
      <point x="83" y="169"/>
      <point x="83" y="349" type="curve" smooth="yes"/>
      <point x="83" y="531"/>
      <point x="220" y="672"/>
      <point x="401" y="672" type="curve" smooth="yes"/>
      <point x="582" y="672"/>
      <point x="719" y="531"/>
      <point x="719" y="349" type="curve" smooth="yes"/>
      <point x="719" y="169"/>
      <point x="582" y="29"/>
    </contour>
    <contour>
      <point x="198" y="331" type="curve" smooth="yes"/>
      <point x="198" y="212"/>
      <point x="282" y="126"/>
      <point x="419" y="126" type="curve"/>
      <point x="469" y="144"/>
      <point x="544" y="205"/>
      <point x="561" y="221" type="curve"/>
      <point x="556" y="228" type="line"/>
      <point x="458" y="170" type="line"/>
      <point x="353" y="165"/>
      <point x="270" y="256"/>
      <point x="270" y="369" type="curve" smooth="yes"/>
      <point x="270" y="479"/>
      <point x="320" y="542"/>
      <point x="381" y="542" type="curve" smooth="yes"/>
      <point x="444" y="542"/>
      <point x="501" y="504"/>
      <point x="525" y="444" type="curve"/>
      <point x="532" y="445" type="line"/>
      <point x="532" y="558" type="line"/>
      <point x="491" y="573"/>
      <point x="447" y="582"/>
      <point x="404" y="580" type="curve"/>
      <point x="280" y="535"/>
      <point x="198" y="464"/>
    </contour>
  </outline>
</glyph>
<glyph name="logicalnot" format="2">
  <advance width="572"/>
  <unicode hex="00AC"/>
  <outline>
    <contour>
      <point x="72" y="218" type="line"/>
      <point x="472" y="218" type="line"/>
      <point x="472" y="256" type="line"/>
      <point x="72" y="256" type="line"/>
    </contour>
    <contour>
      <point x="433" y="60" type="line"/>
      <point x="471" y="60" type="line"/>
      <point x="472" y="238" type="line"/>
      <point x="433" y="238" type="line"/>
    </contour>
  </outline>
</glyph>
<glyph name="registered" format="2">
  <advance width="805"/>
  <unicode hex="00AE"/>
  <outline>
    <contour>
      <point x="401" y="-14" type="curve" smooth="yes"/>
      <point x="602" y="-14"/>
      <point x="766" y="149"/>
      <point x="766" y="349" type="curve" smooth="yes"/>
      <point x="766" y="551"/>
      <point x="602" y="715"/>
      <point x="401" y="715" type="curve" smooth="yes"/>
      <point x="200" y="715"/>
      <point x="36" y="551"/>
      <point x="36" y="349" type="curve" smooth="yes"/>
      <point x="36" y="149"/>
      <point x="200" y="-14"/>
    </contour>
    <contour>
      <point x="401" y="29" type="curve" smooth="yes"/>
      <point x="220" y="29"/>
      <point x="83" y="169"/>
      <point x="83" y="349" type="curve" smooth="yes"/>
      <point x="83" y="531"/>
      <point x="220" y="672"/>
      <point x="401" y="672" type="curve" smooth="yes"/>
      <point x="582" y="672"/>
      <point x="719" y="531"/>
      <point x="719" y="349" type="curve" smooth="yes"/>
      <point x="719" y="169"/>
      <point x="582" y="29"/>
    </contour>
    <contour>
      <point x="268" y="149" type="line" name="_corner02"/>
      <point x="338" y="149" type="line" name="_corner00"/>
      <point x="338" y="344" type="line"/>
      <point x="394" y="344" type="line"/>
      <point x="505" y="149" type="line"/>
      <point x="594" y="148" type="line"/>
      <point x="620" y="167" type="line"/>
      <point x="617" y="173" type="line"/>
      <point x="595" y="160" type="line"/>
      <point x="558" y="160"/>
      <point x="479" y="330"/>
      <point x="476" y="338" type="curve"/>
      <point x="419" y="350" type="line"/>
      <point x="468" y="356"/>
      <point x="555" y="390"/>
      <point x="554" y="475" type="curve"/>
      <point x="554" y="546"/>
      <point x="496" y="575"/>
      <point x="410" y="573" type="curve"/>
      <point x="268" y="572" type="line" name="_corner01"/>
    </contour>
    <contour>
      <point x="338" y="369" type="curve"/>
      <point x="338" y="551" type="line"/>
      <point x="344" y="556"/>
      <point x="382" y="559"/>
      <point x="392" y="559" type="curve"/>
      <point x="449" y="559"/>
      <point x="480" y="518"/>
      <point x="480" y="458" type="curve" smooth="yes"/>
      <point x="480" y="401"/>
      <point x="456" y="363"/>
      <point x="402" y="363" type="curve" smooth="yes"/>
      <point x="391" y="363"/>
      <point x="361" y="363"/>
    </contour>
  </outline>
</glyph>
<glyph name="plusminus" format="2">
  <advance width="472"/>
  <unicode hex="00B1"/>
  <outline>
    <contour>
      <point x="54" y="56" type="line"/>
      <point x="422" y="56" type="line"/>
      <point x="422" y="94" type="line"/>
      <point x="54" y="94" type="line"/>
    </contour>
    <contour>
      <point x="50" y="261" type="line"/>
      <point x="422" y="261" type="line"/>
      <point x="422" y="298" type="line"/>
      <point x="50" y="298" type="line"/>
    </contour>
    <contour>
      <point x="217" y="132" type="line"/>
      <point x="255" y="132" type="line"/>
      <point x="255" y="432" type="line"/>
      <point x="217" y="432" type="line"/>
    </contour>
  </outline>
</glyph>
<glyph name="threesuperior" format="2">
  <advance width="378"/>
  <unicode hex="00B3"/>
  <outline>
    <contour>
      <point x="57" y="594" type="line"/>
      <point x="64" y="590" type="line"/>
      <point x="98" y="630" type="line"/>
      <point x="264" y="629" type="line"/>
      <point x="128" y="477" type="line"/>
      <point x="136" y="470" type="line"/>
      <point x="330" y="682" type="line"/>
      <point x="127" y="682" type="line"/>
    </contour>
    <contour>
      <point x="208" y="555" type="curve"/>
      <point x="161" y="506" type="line"/>
      <point x="223" y="502"/>
      <point x="271" y="460"/>
      <point x="271" y="388" type="curve" smooth="yes"/>
      <point x="271" y="340"/>
      <point x="253" y="287"/>
      <point x="197" y="287" type="curve" smooth="yes"/>
      <point x="147" y="287"/>
      <point x="109" y="328"/>
      <point x="103" y="373" type="curve"/>
      <point x="96" y="372" type="line"/>
      <point x="87" y="360"/>
      <point x="65" y="339"/>
      <point x="54" y="328" type="curve"/>
      <point x="59" y="280"/>
      <point x="99" y="240"/>
      <point x="154" y="240" type="curve" smooth="yes"/>
      <point x="157" y="240"/>
      <point x="161" y="241"/>
      <point x="164" y="241" type="curve"/>
      <point x="218" y="273"/>
      <point x="325" y="321"/>
      <point x="325" y="428" type="curve" smooth="yes"/>
      <point x="325" y="503"/>
      <point x="274" y="547"/>
    </contour>
  </outline>
</glyph>
<glyph name="micro" format="2">
  <advance width="536"/>
  <unicode hex="00B5"/>
  <outline>
    <contour>
      <point x="-5" y="448" type="line"/>
      <point x="66" y="442" type="line"/>
      <point x="67" y="-208" type="line"/>
      <point x="156" y="-149" type="line"/>
      <point x="140" y="-127"/>
      <point x="115" y="-11"/>
      <point x="114" y="25" type="curve"/>
      <point x="139" y="3"/>
      <point x="174" y="-9"/>
      <point x="222" y="-12" type="curve"/>
      <point x="241" y="-11"/>
      <point x="333" y="53"/>
      <point x="377" y="108" type="curve"/>
      <point x="381" y="108" type="line"/>
      <point x="372" y="2" type="line"/>
      <point x="384" y="0" type="line"/>
      <point x="526" y="0" type="line"/>
      <point x="526" y="6" type="line"/>
      <point x="458" y="23" type="line"/>
      <point x="458" y="470" type="line"/>
      <point x="300" y="453" type="line"/>
      <point x="300" y="448" type="line"/>
      <point x="369" y="445" type="line"/>
      <point x="369" y="115" type="line"/>
      <point x="329" y="67"/>
      <point x="261" y="57"/>
      <point x="236" y="57" type="curve" smooth="yes"/>
      <point x="192" y="57"/>
      <point x="155" y="84"/>
      <point x="155" y="187" type="curve" smooth="yes"/>
      <point x="155" y="470" type="line"/>
      <point x="-5" y="453" type="line"/>
    </contour>
  </outline>
</glyph>
<glyph name="paragraph" format="2">
  <advance width="475"/>
  <unicode hex="00B6"/>
  <outline>
    <contour>
      <point x="368" y="-40" type="line" name="_corner01"/>
      <point x="368" y="-12" type="line"/>
      <point x="378" y="716" type="line"/>
      <point x="378" y="742" type="line" name="_corner00"/>
      <point x="141" y="743" type="line" smooth="yes"/>
      <point x="72" y="743"/>
      <point x="-28" y="672"/>
      <point x="-28" y="558" type="curve" smooth="yes"/>
      <point x="-28" y="411"/>
      <point x="84" y="374"/>
      <point x="170" y="373" type="curve" smooth="yes"/>
      <point x="238" y="372" type="line"/>
      <point x="238" y="-12" type="line"/>
      <point x="238" y="-40" type="line" name="_corner02"/>
    </contour>
    <contour>
      <point x="279" y="723" type="line"/>
      <point x="329" y="723" type="line"/>
      <point x="336" y="-21" type="line"/>
      <point x="269" y="-21" type="line"/>
    </contour>
  </outline>
</glyph>
<glyph name="AE" format="2">
  <advance width="947"/>
  <unicode hex="00C6"/>
  <anchor x="474" y="0" name="bottom"/>
  <anchor x="474" y="700" name="top"/>
  <outline>
    <contour>
      <point x="452" y="679" type="line"/>
      <point x="482" y="679" type="line"/>
      <point x="537" y="700" type="line"/>
      <point x="436" y="700" type="line"/>
      <point x="49" y="0" type="line" name="_corner00"/>
      <point x="76" y="0" type="line" name="_corner01"/>
    </contour>
    <contour>
      <point x="197" y="258" type="line"/>
      <point x="488" y="258" type="line"/>
      <point x="488" y="275" type="line"/>
      <point x="205" y="275" type="line"/>
    </contour>
    <contour>
      <point x="436" y="680" type="line"/>
      <point x="449" y="700" type="line"/>
      <point x="359" y="700" type="line"/>
      <point x="359" y="694" type="line"/>
    </contour>
    <contour>
      <point x="462" y="700" type="line"/>
      <point x="462" y="0" type="line" name="_corner02"/>
      <point x="562" y="0" type="line"/>
      <point x="562" y="700" type="line"/>
    </contour>
    <contour>
      <point x="541" y="0" type="line"/>
      <point x="900" y="0" type="line"/>
      <point x="898" y="19" type="line"/>
      <point x="549" y="19" type="line"/>
    </contour>
    <contour>
      <point x="900" y="0" type="line"/>
      <point x="922" y="185" type="line"/>
      <point x="914" y="187" type="line"/>
      <point x="896" y="150"/>
      <point x="815" y="14"/>
      <point x="785" y="15" type="curve"/>
    </contour>
    <contour>
      <point x="541" y="354" type="line"/>
      <point x="743" y="354" type="line"/>
      <point x="786" y="258" type="line"/>
      <point x="797" y="258" type="line"/>
      <point x="797" y="470" type="line"/>
      <point x="786" y="470" type="line"/>
      <point x="743" y="373" type="line"/>
      <point x="549" y="373" type="line"/>
    </contour>
    <contour>
      <point x="541" y="681" type="line"/>
      <point x="882" y="681" type="line"/>
      <point x="882" y="700" type="line"/>
      <point x="549" y="700" type="line"/>
    </contour>
    <contour>
      <point x="900" y="703" type="line"/>
      <point x="785" y="689" type="line"/>
      <point x="815" y="690"/>
      <point x="892" y="553"/>
      <point x="910" y="516" type="curve"/>
      <point x="916" y="516" type="line"/>
    </contour>
  </outline>
</glyph>
<glyph name="Eth" format="2">
  <advance width="758"/>
  <unicode hex="00D0"/>
  <outline>
    <contour>
      <point x="22" y="385" type="line"/>
      <point x="22" y="355" type="line"/>
      <point x="391" y="355" type="line"/>
      <point x="391" y="385" type="line"/>
    </contour>
    <component base="D" xOffset="2"/>
  </outline>
</glyph>
<glyph name="multiply" format="2">
  <advance width="420"/>
  <unicode hex="00D7"/>
  <outline>
    <contour>
      <point x="78" y="72" type="line"/>
      <point x="210" y="209" type="line"/>
      <point x="342" y="72" type="line"/>
      <point x="370" y="100" type="line"/>
      <point x="237" y="236" type="line"/>
      <point x="369" y="370" type="line"/>
      <point x="342" y="397" type="line"/>
      <point x="210" y="263" type="line"/>
      <point x="78" y="397" type="line"/>
      <point x="51" y="370" type="line"/>
      <point x="183" y="236" type="line"/>
      <point x="50" y="100" type="line"/>
    </contour>
  </outline>
</glyph>
<glyph name="Oslash" format="2">
  <advance width="766"/>
  <unicode hex="00D8"/>
  <anchor x="437" y="0" name="bottom"/>
  <anchor x="437" y="700" name="top"/>
  <outline>
    <contour>
      <point x="109" y="-6" type="line"/>
      <point x="144" y="-35" type="line"/>
      <point x="676" y="708" type="line"/>
      <point x="641" y="736" type="line"/>
    </contour>
    <component base="O"/>
  </outline>
</glyph>
<glyph name="Thorn" format="2">
  <advance width="612"/>
  <unicode hex="00DE"/>
  <outline>
    <contour>
      <point x="210" y="181" type="line"/>
      <point x="299" y="182" type="line"/>
      <point x="337" y="185"/>
      <point x="567" y="203"/>
      <point x="566" y="416" type="curve"/>
      <point x="566" y="530"/>
      <point x="470" y="584"/>
      <point x="328" y="581" type="curve" smooth="yes"/>
      <point x="198" y="581" type="line"/>
      <point x="198" y="186" type="line"/>
    </contour>
    <contour>
      <point x="210" y="220" type="curve"/>
      <point x="210" y="550" type="line"/>
      <point x="219" y="558"/>
      <point x="272" y="563"/>
      <point x="303" y="563" type="curve" smooth="yes"/>
      <point x="410" y="563"/>
      <point x="462" y="486"/>
      <point x="462" y="395" type="curve" smooth="yes"/>
      <point x="462" y="266"/>
      <point x="411" y="204"/>
      <point x="321" y="204" type="curve" smooth="yes"/>
      <point x="291" y="204"/>
      <point x="250" y="209"/>
    </contour>
    <component base="I"/>
  </outline>
</glyph>
<glyph name="germandbls" format="2">
  <advance width="568"/>
  <unicode hex="00DF"/>
  <anchor x="253" y="0" name="bottom"/>
  <anchor x="253" y="750" name="top"/>
  <outline>
    <contour>
      <point x="174" y="665" type="line"/>
      <point x="194" y="680"/>
      <point x="221" y="684"/>
      <point x="251" y="684" type="curve" smooth="yes"/>
      <point x="327" y="684"/>
      <point x="371" y="602"/>
      <point x="353" y="498" type="curve"/>
      <point x="256" y="456"/>
      <point x="236" y="412"/>
      <point x="236" y="372" type="curve" smooth="yes"/>
      <point x="236" y="228"/>
      <point x="451" y="210"/>
      <point x="451" y="73" type="curve" smooth="yes"/>
      <point x="451" y="29"/>
      <point x="426" y="6"/>
      <point x="395" y="6" type="curve" smooth="yes"/>
      <point x="328" y="6"/>
      <point x="280" y="103"/>
      <point x="243" y="168" type="curve"/>
      <point x="233" y="163" type="line"/>
      <point x="232" y="46" type="line"/>
      <point x="265" y="16"/>
      <point x="322" y="-16"/>
      <point x="392" y="-16" type="curve"/>
      <point x="501" y="12"/>
      <point x="548" y="42"/>
      <point x="548" y="116" type="curve" smooth="yes"/>
      <point x="548" y="287"/>
      <point x="301" y="302"/>
      <point x="301" y="442" type="curve"/>
      <point x="388" y="494"/>
      <point x="437" y="541"/>
      <point x="437" y="617" type="curve" smooth="yes"/>
      <point x="437" y="698"/>
      <point x="380" y="750"/>
      <point x="263" y="750" type="curve"/>
      <point x="182" y="710"/>
      <point x="115" y="637"/>
      <point x="85" y="534" type="curve"/>
      <point x="85" y="470" type="line"/>
      <point x="18" y="466" type="line"/>
      <point x="18" y="452" type="line"/>
      <point x="85" y="452" type="line"/>
      <point x="85" y="0" type="line" name="_corner00"/>
      <point x="174" y="0" type="line"/>
    </contour>
  </outline>
</glyph>
<glyph name="ae" format="2">
  <advance width="719"/>
  <unicode hex="00E6"/>
  <anchor x="377" y="0" name="bottom"/>
  <anchor x="377" y="470" name="top"/>
  <outline>
    <contour>
      <point x="38" y="368" type="curve"/>
      <point x="43" y="362" type="line"/>
      <point x="84" y="397"/>
      <point x="115" y="419"/>
      <point x="174" y="419" type="curve" smooth="yes"/>
      <point x="253" y="419"/>
      <point x="299" y="379"/>
      <point x="299" y="284" type="curve" smooth="yes"/>
      <point x="299" y="218"/>
      <point x="299" y="152"/>
      <point x="327" y="101" type="curve"/>
      <point x="388" y="158" type="line"/>
      <point x="358" y="320" type="line"/>
      <point x="378" y="425"/>
      <point x="324" y="484"/>
      <point x="189" y="484" type="curve"/>
      <point x="144" y="463"/>
      <point x="86" y="417"/>
    </contour>
    <contour>
      <point x="128" y="187" type="curve"/>
      <point x="174" y="221"/>
      <point x="228" y="230"/>
      <point x="304" y="212" type="curve"/>
      <point x="304" y="272" type="line"/>
      <point x="196" y="250"/>
      <point x="77" y="187"/>
      <point x="37" y="137" type="curve"/>
      <point x="29" y="43"/>
      <point x="79" y="-14"/>
      <point x="175" y="-14" type="curve"/>
      <point x="222" y="6"/>
      <point x="281" y="27"/>
      <point x="369" y="153" type="curve"/>
      <point x="322" y="122" type="line"/>
      <point x="279" y="72"/>
      <point x="246" y="55"/>
      <point x="208" y="55" type="curve" smooth="yes"/>
      <point x="144" y="55"/>
      <point x="118" y="118"/>
    </contour>
    <component base="e" xScale="0.95" xOffset="264"/>
  </outline>
</glyph>
<glyph name="eth" format="2">
  <advance width="547"/>
  <unicode hex="00F0"/>
  <anchor x="272" y="470" name="top"/>
  <outline>
    <contour>
      <point x="258" y="-14" type="curve"/>
      <point x="301" y="-8"/>
      <point x="502" y="55"/>
      <point x="502" y="252" type="curve" smooth="yes"/>
      <point x="502" y="492"/>
      <point x="347" y="691"/>
      <point x="131" y="750" type="curve"/>
      <point x="126" y="736" type="line"/>
      <point x="288" y="661"/>
      <point x="342" y="535"/>
      <point x="364" y="446" type="curve"/>
      <point x="334" y="465"/>
      <point x="302" y="477"/>
      <point x="268" y="484" type="curve"/>
      <point x="210" y="466"/>
      <point x="36" y="398"/>
      <point x="36" y="219" type="curve" smooth="yes"/>
      <point x="36" y="86"/>
      <point x="115" y="-19"/>
    </contour>
    <contour>
      <point x="288" y="12" type="curve" smooth="yes"/>
      <point x="200" y="12"/>
      <point x="134" y="121"/>
      <point x="134" y="259" type="curve" smooth="yes"/>
      <point x="134" y="371"/>
      <point x="178" y="452"/>
      <point x="244" y="452" type="curve" smooth="yes"/>
      <point x="333" y="452"/>
      <point x="402" y="349"/>
      <point x="402" y="214" type="curve" smooth="yes"/>
      <point x="402" y="101"/>
      <point x="357" y="12"/>
    </contour>
    <contour>
      <point x="144" y="556" type="line"/>
      <point x="153" y="541" type="line"/>
      <point x="394" y="693" type="line"/>
      <point x="384" y="706" type="line"/>
    </contour>
  </outline>
</glyph>
<glyph name="divide" format="2">
  <advance width="476"/>
  <unicode hex="00F7"/>
  <outline>
    <contour>
      <point x="50" y="216" type="line"/>
      <point x="426" y="216" type="line"/>
      <point x="426" y="256" type="line"/>
      <point x="50" y="256" type="line"/>
    </contour>
    <contour>
      <point x="238" y="317" type="curve" smooth="yes"/>
      <point x="265" y="317"/>
      <point x="285" y="338"/>
      <point x="285" y="365" type="curve" smooth="yes"/>
      <point x="285" y="390"/>
      <point x="265" y="411"/>
      <point x="238" y="411" type="curve" smooth="yes"/>
      <point x="213" y="411"/>
      <point x="191" y="390"/>
      <point x="191" y="365" type="curve" smooth="yes"/>
      <point x="191" y="338"/>
      <point x="213" y="317"/>
    </contour>
    <contour>
      <point x="238" y="62" type="curve" smooth="yes"/>
      <point x="265" y="62"/>
      <point x="285" y="83"/>
      <point x="285" y="110" type="curve" smooth="yes"/>
      <point x="285" y="135"/>
      <point x="265" y="156"/>
      <point x="238" y="156" type="curve" smooth="yes"/>
      <point x="213" y="156"/>
      <point x="191" y="135"/>
      <point x="191" y="110" type="curve" smooth="yes"/>
      <point x="191" y="83"/>
      <point x="213" y="62"/>
    </contour>
  </outline>
</glyph>
<glyph name="oslash" format="2">
  <advance width="531"/>
  <unicode hex="00F8"/>
  <anchor x="266" y="470" name="top"/>
  <outline>
    <contour>
      <point x="68" y="-37" type="line"/>
      <point x="96" y="-53" type="line"/>
      <point x="480" y="495" type="line"/>
      <point x="452" y="511" type="line"/>
    </contour>
    <component base="o"/>
  </outline>
</glyph>
<glyph name="thorn" format="2">
  <advance width="543"/>
  <unicode hex="00FE"/>
  <anchor x="254" y="0" name="bottom"/>
  <anchor x="254" y="470" name="top"/>
  <outline>
    <contour>
      <point x="70" y="-249" type="line" name="_corner02"/>
      <point x="160" y="-250" type="line" name="_corner00"/>
      <point x="157" y="-3" type="line"/>
      <point x="182" y="-10"/>
      <point x="212" y="-14"/>
      <point x="249" y="-14" type="curve"/>
      <point x="315" y="7"/>
      <point x="487" y="96"/>
      <point x="487" y="252" type="curve" smooth="yes"/>
      <point x="487" y="412"/>
      <point x="411" y="484"/>
      <point x="310" y="484" type="curve"/>
      <point x="264" y="466"/>
      <point x="203" y="389"/>
      <point x="157" y="330" type="curve"/>
      <point x="154" y="330" type="line"/>
      <point x="156" y="750" type="line"/>
      <point x="73" y="750" type="line" name="_corner01"/>
    </contour>
    <contour>
      <point x="157" y="109" type="curve" smooth="yes"/>
      <point x="157" y="316" type="line"/>
      <point x="195" y="366"/>
      <point x="239" y="415"/>
      <point x="278" y="415" type="curve" smooth="yes"/>
      <point x="334" y="415"/>
      <point x="402" y="336"/>
      <point x="402" y="211" type="curve" smooth="yes"/>
      <point x="402" y="86"/>
      <point x="363" y="30"/>
      <point x="272" y="30" type="curve" smooth="yes"/>
      <point x="228" y="30"/>
      <point x="157" y="74"/>
    </contour>
  </outline>
</glyph>
<glyph name="idotless" format="2">
  <advance width="264"/>
  <unicode hex="0131"/>
  <anchor x="135" y="0" name="bottom"/>
  <anchor x="234" y="10" name="ogonek"/>
  <anchor x="135" y="470" name="top"/>
  <outline>
    <contour>
      <point x="95" y="0" type="line" name="_corner01"/>
      <point x="184" y="0" type="line" name="_corner02"/>
      <point x="184" y="470" type="line"/>
      <point x="95" y="470" type="line" name="_corner00"/>
    </contour>
  </outline>
</glyph>
<glyph name="Lslash" format="2">
  <advance width="629"/>
  <unicode hex="0141"/>
  <outline>
    <contour>
      <point x="458" y="434" type="line"/>
      <point x="442" y="461" type="line"/>
      <point x="22" y="223" type="line"/>
      <point x="38" y="196" type="line"/>
    </contour>
    <component base="L" xOffset="40"/>
  </outline>
</glyph>
<glyph name="lslash" format="2">
  <advance width="278"/>
  <unicode hex="0142"/>
  <outline>
    <contour>
      <point x="40" y="365" type="line"/>
      <point x="53" y="340" type="line"/>
      <point x="282" y="453" type="line"/>
      <point x="270" y="478" type="line"/>
    </contour>
    <component base="l" xOffset="30"/>
  </outline>
</glyph>
<glyph name="OE" format="2">
  <advance width="922"/>
  <unicode hex="0152"/>
  <anchor x="185" y="0" name="bottom"/>
  <anchor x="641" y="0" name="ogonek"/>
  <anchor x="185" y="700" name="top"/>
  <anchor x="446" y="700" name="topleft"/>
  <outline>
    <contour>
      <point x="448" y="652" type="curve"/>
      <point x="440" y="700" type="line"/>
      <point x="430" y="700" type="line"/>
      <point x="292" y="658"/>
      <point x="44" y="555"/>
      <point x="44" y="315" type="curve" smooth="yes"/>
      <point x="44" y="165"/>
      <point x="160" y="3"/>
      <point x="317" y="0" type="curve"/>
      <point x="450" y="62" type="line"/>
      <point x="444" y="71" type="line"/>
      <point x="268" y="25"/>
      <point x="138" y="197"/>
      <point x="138" y="375" type="curve" smooth="yes"/>
      <point x="138" y="549"/>
      <point x="235" y="652"/>
    </contour>
    <contour>
      <point x="437" y="0" type="line"/>
      <point x="537" y="0" type="line"/>
      <point x="537" y="700" type="line"/>
      <point x="437" y="700" type="line"/>
    </contour>
    <contour>
      <point x="516" y="0" type="line"/>
      <point x="875" y="0" type="line"/>
      <point x="873" y="19" type="line"/>
      <point x="524" y="19" type="line"/>
    </contour>
    <contour>
      <point x="875" y="0" type="line"/>
      <point x="897" y="185" type="line"/>
      <point x="889" y="187" type="line"/>
      <point x="871" y="150"/>
      <point x="790" y="14"/>
      <point x="760" y="15" type="curve"/>
    </contour>
    <contour>
      <point x="516" y="354" type="line"/>
      <point x="772" y="354" type="line"/>
      <point x="772" y="373" type="line"/>
      <point x="524" y="373" type="line"/>
    </contour>
    <contour>
      <point x="761" y="258" type="line"/>
      <point x="772" y="258" type="line"/>
      <point x="772" y="364" type="line"/>
      <point x="718" y="355" type="line"/>
    </contour>
    <contour>
      <point x="772" y="364" type="line"/>
      <point x="772" y="470" type="line"/>
      <point x="761" y="470" type="line"/>
      <point x="718" y="373" type="line"/>
    </contour>
    <contour>
      <point x="516" y="681" type="line"/>
      <point x="857" y="681" type="line"/>
      <point x="857" y="700" type="line"/>
      <point x="524" y="700" type="line"/>
    </contour>
    <contour>
      <point x="885" y="516" type="curve"/>
      <point x="891" y="516" type="line"/>
      <point x="875" y="703" type="line"/>
      <point x="760" y="689" type="line"/>
      <point x="790" y="690"/>
      <point x="867" y="553"/>
    </contour>
  </outline>
</glyph>
<glyph name="florin" format="2">
  <advance width="467"/>
  <unicode hex="0192"/>
  <outline>
    <contour>
      <point x="11" y="-82" type="curve"/>
      <point x="69" y="-58"/>
      <point x="164" y="34"/>
      <point x="228" y="118" type="curve"/>
      <point x="284" y="630" type="line" smooth="yes"/>
      <point x="288" y="664"/>
      <point x="322" y="694"/>
      <point x="356" y="706" type="curve"/>
      <point x="460" y="650" type="line"/>
      <point x="488" y="654" type="line"/>
      <point x="514" y="714" type="line"/>
      <point x="494" y="738"/>
      <point x="453" y="758"/>
      <point x="420" y="758" type="curve"/>
      <point x="344" y="728"/>
      <point x="246" y="655"/>
      <point x="184" y="582" type="curve"/>
      <point x="125" y="66" type="line"/>
      <point x="110" y="16"/>
      <point x="84" y="-18"/>
      <point x="44" y="-38" type="curve"/>
      <point x="-73" y="38" type="line"/>
      <point x="-102" y="34" type="line"/>
      <point x="-139" y="-30" type="line"/>
      <point x="-88" y="-63"/>
      <point x="-37" y="-82"/>
    </contour>
    <contour>
      <point x="43" y="378" type="line"/>
      <point x="380" y="378" type="line"/>
      <point x="384" y="392" type="line"/>
      <point x="47" y="392" type="line"/>
    </contour>
  </outline>
</glyph>
<glyph name="jdotless" format="2">
  <advance width="278"/>
  <unicode hex="0237"/>
  <anchor x="151" y="470" name="top"/>
  <outline>
    <contour>
      <point x="16" y="-144" type="curve"/>
      <point x="-14" y="-140" type="line"/>
      <point x="-68" y="-179" type="line"/>
      <point x="-56" y="-223"/>
      <point x="-20" y="-250"/>
      <point x="11" y="-250" type="curve"/>
      <point x="109" y="-214"/>
      <point x="176" y="-141"/>
      <point x="202" y="-38" type="curve"/>
      <point x="202" y="470" type="line"/>
      <point x="113" y="470" type="line" name="_corner00"/>
      <point x="113" y="-1" type="line" smooth="yes"/>
      <point x="113" y="-152"/>
      <point x="98" y="-198"/>
      <point x="72" y="-198" type="curve" smooth="yes"/>
      <point x="48" y="-198"/>
      <point x="26" y="-182"/>
    </contour>
  </outline>
</glyph>
<glyph name="gravecomb" format="2">
  <advance width="400"/>
  <unicode hex="0300"/>
  <anchor x="157" y="524" name="_top"/>
  <anchor x="132" y="731" name="top"/>
  <outline>
    <contour>
      <point x="197" y="577" type="line"/>
      <point x="203" y="581" type="line"/>
      <point x="146" y="728" type="line"/>
      <point x="61" y="731" type="line"/>
      <point x="53" y="725" type="line"/>
      <point x="53" y="724" type="line"/>
    </contour>
  </outline>
</glyph>
<glyph name="circumflexcomb" format="2">
  <advance width="400"/>
  <unicode hex="0302"/>
  <anchor x="202" y="496" name="_top"/>
  <outline>
    <contour>
      <point x="96" y="552" type="line"/>
      <point x="200" y="626" type="line"/>
      <point x="202" y="626" type="line"/>
      <point x="303" y="552" type="line"/>
      <point x="308" y="557" type="line"/>
      <point x="205" y="718" type="line"/>
      <point x="197" y="718" type="line"/>
      <point x="91" y="557" type="line"/>
    </contour>
  </outline>
</glyph>
<glyph name="tildecomb" format="2">
  <advance width="400"/>
  <unicode hex="0303"/>
  <anchor x="192" y="542" name="_top"/>
  <anchor x="200" y="719" name="top"/>
  <outline>
    <contour>
      <point x="83" y="599" type="curve"/>
      <point x="96" y="599" type="line"/>
      <point x="96" y="629"/>
      <point x="110" y="649"/>
      <point x="133" y="649" type="curve" smooth="yes"/>
      <point x="156" y="649"/>
      <point x="200" y="614"/>
      <point x="244" y="614" type="curve"/>
      <point x="257" y="621"/>
      <point x="317" y="657"/>
      <point x="317" y="714" type="curve"/>
      <point x="304" y="714" type="line"/>
      <point x="304" y="683"/>
      <point x="290" y="664"/>
      <point x="267" y="664" type="curve" smooth="yes"/>
      <point x="244" y="664"/>
      <point x="200" y="699"/>
      <point x="156" y="699" type="curve"/>
      <point x="143" y="692"/>
      <point x="83" y="656"/>
    </contour>
  </outline>
</glyph>
<glyph name="macroncomb" format="2">
  <advance width="400"/>
  <unicode hex="0304"/>
  <anchor x="200" y="547" name="_top"/>
  <anchor x="200" y="658" name="top"/>
  <outline>
    <contour>
      <point x="100" y="628" type="line"/>
      <point x="300" y="628" type="line"/>
      <point x="300" y="666" type="line"/>
      <point x="100" y="666" type="line"/>
    </contour>
  </outline>
</glyph>
<glyph name="brevecomb" format="2">
  <advance width="400"/>
  <unicode hex="0306"/>
  <anchor x="200" y="497" name="_top"/>
  <outline>
    <contour>
      <point x="200" y="568" type="curve" smooth="yes"/>
      <point x="261" y="568"/>
      <point x="300" y="612"/>
      <point x="300" y="698" type="curve"/>
      <point x="287" y="698" type="line"/>
      <point x="287" y="655"/>
      <point x="257" y="631"/>
      <point x="200" y="631" type="curve" smooth="yes"/>
      <point x="143" y="631"/>
      <point x="113" y="655"/>
      <point x="113" y="698" type="curve"/>
      <point x="100" y="698" type="line"/>
      <point x="100" y="612"/>
      <point x="139" y="568"/>
    </contour>
  </outline>
</glyph>
<glyph name="ringcomb" format="2">
  <advance width="400"/>
  <unicode hex="030A"/>
  <anchor x="182" y="497" name="_top"/>
  <anchor x="182" y="721" name="top"/>
  <outline>
    <contour>
      <point x="172" y="552" type="curve"/>
      <point x="188" y="557"/>
      <point x="263" y="577"/>
      <point x="269" y="638" type="curve" smooth="yes"/>
      <point x="273" y="683"/>
      <point x="244" y="722"/>
      <point x="196" y="724" type="curve"/>
      <point x="179" y="721"/>
      <point x="101" y="692"/>
      <point x="96" y="637" type="curve" smooth="yes"/>
      <point x="92" y="594"/>
      <point x="119" y="555"/>
    </contour>
    <contour>
      <point x="190" y="576" type="curve" smooth="yes"/>
      <point x="158" y="576"/>
      <point x="135" y="608"/>
      <point x="135" y="646" type="curve" smooth="yes"/>
      <point x="135" y="673"/>
      <point x="151" y="698"/>
      <point x="174" y="698" type="curve" smooth="yes"/>
      <point x="206" y="698"/>
      <point x="230" y="668"/>
      <point x="230" y="631" type="curve" smooth="yes"/>
      <point x="230" y="602"/>
      <point x="214" y="576"/>
    </contour>
  </outline>
</glyph>
<glyph name="hungarumlautcomb" format="2">
  <advance width="400"/>
  <unicode hex="030B"/>
  <anchor x="251" y="535" name="_top"/>
  <anchor x="251" y="744" name="top"/>
  <outline>
    <contour>
      <point x="157" y="589" type="line"/>
      <point x="292" y="736" type="line"/>
      <point x="292" y="737" type="line"/>
      <point x="285" y="743" type="line"/>
      <point x="208" y="740" type="line"/>
      <point x="151" y="593" type="line"/>
    </contour>
    <contour>
      <point x="252" y="593" type="line"/>
      <point x="412" y="726" type="line"/>
      <point x="413" y="727" type="line"/>
      <point x="406" y="736" type="line"/>
      <point x="330" y="744" type="line"/>
      <point x="247" y="598" type="line"/>
    </contour>
  </outline>
</glyph>
<glyph name="cedillacomb" format="2">
  <advance width="400"/>
  <unicode hex="0327"/>
  <anchor x="230" y="0" name="_bottom"/>
  <anchor x="230" y="-232" name="bottom"/>
  <outline>
    <contour>
      <point x="145" y="-182" type="line"/>
      <point x="145" y="-215"/>
      <point x="175" y="-232"/>
      <point x="223" y="-232" type="curve" smooth="yes"/>
      <point x="242" y="-232"/>
      <point x="344" y="-188"/>
      <point x="344" y="-125" type="curve" smooth="yes"/>
      <point x="344" y="-83"/>
      <point x="299" y="-57"/>
      <point x="222" y="-54" type="curve"/>
      <point x="271" y="7" type="line"/>
      <point x="250" y="7" type="line"/>
      <point x="171" y="-97" type="line"/>
      <point x="194" y="-98" type="line"/>
      <point x="254" y="-102"/>
      <point x="274" y="-122"/>
      <point x="274" y="-159" type="curve" smooth="yes"/>
      <point x="274" y="-194"/>
      <point x="255" y="-216"/>
      <point x="243" y="-216" type="curve" smooth="yes"/>
      <point x="230" y="-216"/>
      <point x="212" y="-194"/>
      <point x="212" y="-157" type="curve"/>
      <point x="193" y="-158" type="line"/>
    </contour>
  </outline>
</glyph>
<glyph name="ogonekcomb" format="2">
  <advance width="400"/>
  <unicode hex="0328"/>
  <anchor x="289" y="20" name="_ogonek"/>
  <outline>
    <contour>
      <point x="253" y="23" type="line"/>
      <point x="213" y="5"/>
      <point x="136" y="-85"/>
      <point x="136" y="-112" type="curve" smooth="yes"/>
      <point x="136" y="-159"/>
      <point x="157" y="-213"/>
      <point x="239" y="-222" type="curve"/>
      <point x="265" y="-211"/>
      <point x="306" y="-175"/>
      <point x="341" y="-132" type="curve"/>
      <point x="338" y="-128" type="line"/>
      <point x="312" y="-148"/>
      <point x="293" y="-158"/>
      <point x="268" y="-159" type="curve" smooth="yes"/>
      <point x="246" y="-160"/>
      <point x="207" y="-134"/>
      <point x="207" y="-84" type="curve" smooth="yes"/>
      <point x="207" y="-48"/>
      <point x="220" y="-3"/>
      <point x="258" y="13" type="curve"/>
    </contour>
  </outline>
</glyph>
<glyph name="Germandbls" format="2">
  <advance width="694"/>
  <unicode hex="1E9E"/>
  <outline>
    <contour>
      <point x="112" y="461" type="curve"/>
      <point x="112" y="0" type="line" name="_corner00"/>
      <point x="212" y="0" type="line"/>
      <point x="212" y="586"/>
      <point x="247" y="669"/>
      <point x="362" y="693" type="curve"/>
      <point x="461" y="693" type="line"/>
      <point x="325" y="363" type="line"/>
      <point x="341" y="353" type="line"/>
      <point x="592" y="695" type="line"/>
      <point x="584" y="709" type="line"/>
      <point x="370" y="709" type="line"/>
      <point x="156" y="670"/>
      <point x="132" y="575"/>
    </contour>
    <contour>
      <point x="261" y="126" type="curve"/>
      <point x="269" y="57"/>
      <point x="326" y="0"/>
      <point x="404" y="0" type="curve" smooth="yes"/>
      <point x="409" y="0"/>
      <point x="414" y="1"/>
      <point x="419" y="1" type="curve"/>
      <point x="495" y="47"/>
      <point x="664" y="116"/>
      <point x="664" y="268" type="curve" smooth="yes"/>
      <point x="664" y="395"/>
      <point x="547" y="443"/>
      <point x="481" y="443" type="curve"/>
      <point x="339" y="381" type="line"/>
      <point x="399" y="380" type="line"/>
      <point x="491" y="380"/>
      <point x="587" y="324"/>
      <point x="587" y="212" type="curve" smooth="yes"/>
      <point x="587" y="143"/>
      <point x="545" y="67"/>
      <point x="465" y="67" type="curve" smooth="yes"/>
      <point x="394" y="67"/>
      <point x="340" y="126"/>
      <point x="332" y="190" type="curve"/>
      <point x="321" y="189" type="line"/>
      <point x="308" y="172"/>
      <point x="277" y="142"/>
    </contour>
  </outline>
</glyph>
<glyph name="endash" format="2">
  <advance width="412"/>
  <unicode hex="2013"/>
  <outline>
    <contour>
      <point x="55" y="271" type="line"/>
      <point x="55" y="230" type="line"/>
      <point x="357" y="230" type="line"/>
      <point x="357" y="270" type="line"/>
    </contour>
  </outline>
</glyph>
<glyph name="emdash" format="2">
  <advance width="805"/>
  <unicode hex="2014"/>
  <outline>
    <contour>
      <point x="55" y="270" type="line"/>
      <point x="55" y="230" type="line"/>
      <point x="750" y="230" type="line"/>
      <point x="750" y="270" type="line"/>
    </contour>
  </outline>
</glyph>
<glyph name="dagger" format="2">
  <advance width="308"/>
  <unicode hex="2020"/>
  <outline>
    <contour>
      <point x="165" y="204" type="line"/>
      <point x="143" y="204" type="line"/>
      <point x="143" y="299" type="line"/>
      <point x="143" y="379"/>
      <point x="132" y="426"/>
      <point x="119" y="473" type="curve"/>
      <point x="140" y="499"/>
      <point x="144" y="531"/>
      <point x="144" y="594" type="curve"/>
      <point x="101" y="594"/>
      <point x="75" y="572"/>
      <point x="55" y="572" type="curve"/>
      <point x="23" y="603" type="line"/>
      <point x="55" y="632" type="line"/>
      <point x="75" y="632"/>
      <point x="101" y="612"/>
      <point x="144" y="612" type="curve"/>
      <point x="144" y="688"/>
      <point x="122" y="706"/>
      <point x="122" y="726" type="curve"/>
      <point x="154" y="759" type="line"/>
      <point x="186" y="726" type="line"/>
      <point x="186" y="706"/>
      <point x="165" y="688"/>
      <point x="165" y="612" type="curve"/>
      <point x="207" y="612"/>
      <point x="233" y="632"/>
      <point x="253" y="632" type="curve"/>
      <point x="285" y="603" type="line"/>
      <point x="253" y="572" type="line"/>
      <point x="233" y="572"/>
      <point x="207" y="594"/>
      <point x="165" y="594" type="curve"/>
      <point x="165" y="531"/>
      <point x="168" y="499"/>
      <point x="189" y="473" type="curve"/>
      <point x="176" y="426"/>
      <point x="165" y="379"/>
      <point x="165" y="299" type="curve"/>
    </contour>
  </outline>
</glyph>
<glyph name="daggerdbl" format="2">
  <advance width="308"/>
  <unicode hex="2021"/>
  <outline>
    <contour>
      <point x="23" y="51" type="line"/>
      <point x="55" y="82" type="line"/>
      <point x="75" y="82"/>
      <point x="101" y="60"/>
      <point x="144" y="60" type="curve"/>
      <point x="144" y="123"/>
      <point x="140" y="155"/>
      <point x="119" y="181" type="curve"/>
      <point x="130" y="222"/>
      <point x="140" y="263"/>
      <point x="143" y="327" type="curve"/>
      <point x="140" y="391"/>
      <point x="130" y="432"/>
      <point x="119" y="473" type="curve"/>
      <point x="140" y="499"/>
      <point x="144" y="531"/>
      <point x="144" y="594" type="curve"/>
      <point x="101" y="594"/>
      <point x="75" y="572"/>
      <point x="55" y="572" type="curve"/>
      <point x="23" y="603" type="line"/>
      <point x="55" y="632" type="line"/>
      <point x="75" y="632"/>
      <point x="101" y="612"/>
      <point x="144" y="612" type="curve"/>
      <point x="144" y="688"/>
      <point x="122" y="706"/>
      <point x="122" y="726" type="curve"/>
      <point x="154" y="759" type="line"/>
      <point x="186" y="726" type="line"/>
      <point x="186" y="706"/>
      <point x="165" y="688"/>
      <point x="165" y="612" type="curve"/>
      <point x="207" y="612"/>
      <point x="233" y="632"/>
      <point x="253" y="632" type="curve"/>
      <point x="285" y="603" type="line"/>
      <point x="253" y="572" type="line"/>
      <point x="233" y="572"/>
      <point x="207" y="594"/>
      <point x="165" y="594" type="curve"/>
      <point x="165" y="531"/>
      <point x="168" y="499"/>
      <point x="189" y="473" type="curve"/>
      <point x="178" y="432"/>
      <point x="168" y="391"/>
      <point x="165" y="327" type="curve"/>
      <point x="168" y="263"/>
      <point x="178" y="222"/>
      <point x="189" y="181" type="curve"/>
      <point x="168" y="155"/>
      <point x="165" y="123"/>
      <point x="165" y="60" type="curve"/>
      <point x="207" y="60"/>
      <point x="233" y="82"/>
      <point x="253" y="82" type="curve"/>
      <point x="285" y="51" type="line"/>
      <point x="253" y="22" type="line"/>
      <point x="233" y="22"/>
      <point x="207" y="42"/>
      <point x="165" y="42" type="curve"/>
      <point x="165" y="-34"/>
      <point x="186" y="-52"/>
      <point x="186" y="-72" type="curve"/>
      <point x="154" y="-105" type="line"/>
      <point x="122" y="-72" type="line"/>
      <point x="122" y="-52"/>
      <point x="144" y="-34"/>
      <point x="144" y="42" type="curve"/>
      <point x="101" y="42"/>
      <point x="75" y="22"/>
      <point x="55" y="22" type="curve"/>
    </contour>
  </outline>
</glyph>
<glyph name="guilsinglleft" format="2">
  <advance width="324"/>
  <unicode hex="2039"/>
  <outline>
    <contour>
      <point x="291" y="-25" type="line"/>
      <point x="164" y="230" type="line"/>
      <point x="164" y="235" type="line"/>
      <point x="294" y="481" type="line"/>
      <point x="287" y="485" type="line"/>
      <point x="50" y="227" type="line"/>
      <point x="50" y="221" type="line"/>
      <point x="285" y="-30" type="line"/>
    </contour>
  </outline>
</glyph>
<glyph name="fraction" format="2">
  <advance width="593"/>
  <unicode hex="2044"/>
  <outline>
    <contour>
      <point x="50" y="-250" type="line"/>
      <point x="87" y="-250" type="line"/>
      <point x="543" y="750" type="line"/>
      <point x="506" y="750" type="line"/>
    </contour>
  </outline>
</glyph>
<glyph name="foursuperior" format="2">
  <advance width="376"/>
  <unicode hex="2074"/>
  <outline>
    <contour>
      <point x="213" y="678" type="line"/>
      <point x="295" y="678" type="line"/>
      <point x="297" y="676" type="line"/>
      <point x="78" y="371" type="line"/>
      <point x="21" y="370" type="line"/>
      <point x="29" y="383" type="line"/>
      <point x="282" y="388" type="line"/>
      <point x="282" y="375" type="line"/>
      <point x="220" y="374" type="line"/>
      <point x="223" y="482" type="line"/>
      <point x="274" y="493" type="line"/>
      <point x="282" y="489" type="line"/>
      <point x="282" y="388" type="line"/>
      <point x="366" y="390" type="line"/>
      <point x="366" y="376" type="line"/>
      <point x="282" y="375" type="line"/>
      <point x="282" y="249" type="line"/>
      <point x="277" y="240" type="line"/>
      <point x="220" y="217" type="line"/>
      <point x="220" y="374" type="line"/>
      <point x="21" y="370" type="line"/>
    </contour>
  </outline>
</glyph>
<glyph name="euro" format="2">
  <advance width="672"/>
  <unicode hex="20AC"/>
  <anchor x="334" y="0" name="bottom"/>
  <anchor x="514" y="700" name="top"/>
  <outline>
    <contour>
      <point x="91" y="317" type="curve" smooth="yes"/>
      <point x="91" y="126"/>
      <point x="210" y="-12"/>
      <point x="420" y="-13" type="curve"/>
      <point x="484" y="17"/>
      <point x="604" y="114"/>
      <point x="632" y="139" type="curve"/>
      <point x="626" y="147" type="line"/>
      <point x="467" y="44" type="line"/>
      <point x="298" y="44"/>
      <point x="192" y="195"/>
      <point x="192" y="376" type="curve" smooth="yes"/>
      <point x="192" y="553"/>
      <point x="277" y="663"/>
      <point x="354" y="663" type="curve" smooth="yes"/>
      <point x="467" y="663"/>
      <point x="570" y="602"/>
      <point x="584" y="497" type="curve"/>
      <point x="596" y="498" type="line"/>
      <point x="595" y="678" type="line"/>
      <point x="530" y="701"/>
      <point x="460" y="717"/>
      <point x="391" y="714" type="curve"/>
      <point x="217" y="642"/>
      <point x="91" y="528"/>
    </contour>
    <contour>
      <point x="10" y="400" type="line"/>
      <point x="10" y="377" type="line"/>
      <point x="473" y="377" type="line"/>
      <point x="473" y="400" type="line"/>
    </contour>
    <contour>
      <point x="10" y="330" type="line"/>
      <point x="10" y="307" type="line"/>
      <point x="473" y="307" type="line"/>
      <point x="473" y="330" type="line"/>
    </contour>
  </outline>
</glyph>
<glyph name="trademark" format="2">
  <advance width="677"/>
  <unicode hex="2122"/>
  <anchor x="691" y="0" name="bottom"/>
  <anchor x="691" y="700" name="top"/>
  <outline>
    <contour>
      <point x="84" y="467" type="line"/>
      <point x="213" y="467" type="line"/>
      <point x="213" y="471" type="line"/>
      <point x="177" y="478" type="line"/>
      <point x="177" y="739" type="line"/>
      <point x="218" y="739" type="line"/>
      <point x="266" y="655" type="line"/>
      <point x="268" y="655" type="line"/>
      <point x="267" y="748" type="line"/>
      <point x="230" y="746" type="line"/>
      <point x="67" y="746" type="line"/>
      <point x="31" y="748" type="line"/>
      <point x="30" y="655" type="line"/>
      <point x="33" y="655" type="line"/>
      <point x="79" y="739" type="line"/>
      <point x="120" y="739" type="line"/>
      <point x="120" y="478" type="line"/>
      <point x="84" y="471" type="line"/>
    </contour>
    <contour>
      <point x="284" y="467" type="line"/>
      <point x="368" y="467" type="line"/>
      <point x="368" y="471" type="line"/>
      <point x="331" y="478" type="line"/>
      <point x="331" y="731" type="line"/>
      <point x="444" y="466" type="line"/>
      <point x="449" y="466" type="line"/>
      <point x="555" y="722" type="line"/>
      <point x="555" y="478" type="line"/>
      <point x="519" y="471" type="line"/>
      <point x="519" y="467" type="line"/>
      <point x="647" y="467" type="line"/>
      <point x="647" y="471" type="line"/>
      <point x="612" y="478" type="line"/>
      <point x="612" y="736" type="line"/>
      <point x="647" y="743" type="line"/>
      <point x="647" y="746" type="line"/>
      <point x="551" y="746" type="line"/>
      <point x="443" y="489" type="line"/>
      <point x="474" y="538" type="line"/>
      <point x="385" y="746" type="line"/>
      <point x="284" y="746" type="line"/>
      <point x="284" y="743" type="line"/>
      <point x="318" y="736" type="line"/>
      <point x="318" y="478" type="line"/>
      <point x="284" y="471" type="line"/>
    </contour>
  </outline>
</glyph>
<glyph name="minus" format="2">
  <advance width="476"/>
  <unicode hex="2212"/>
  <outline>
    <contour>
      <point x="50" y="216" type="line"/>
      <point x="426" y="216" type="line"/>
      <point x="426" y="256" type="line"/>
      <point x="50" y="256" type="line"/>
    </contour>
  </outline>
</glyph>
<glyph name="approxequal" format="2">
  <advance width="528"/>
  <unicode hex="2248"/>
  <outline>
    <contour>
      <point x="79" y="257" type="line"/>
      <point x="99" y="285"/>
      <point x="134" y="301"/>
      <point x="170" y="301" type="curve" smooth="yes"/>
      <point x="230" y="301"/>
      <point x="286" y="257"/>
      <point x="354" y="257" type="curve" smooth="yes"/>
      <point x="399" y="257"/>
      <point x="450" y="278"/>
      <point x="478" y="318" type="curve"/>
      <point x="449" y="339" type="line"/>
      <point x="429" y="311"/>
      <point x="394" y="295"/>
      <point x="358" y="295" type="curve" smooth="yes"/>
      <point x="298" y="295"/>
      <point x="242" y="339"/>
      <point x="174" y="339" type="curve" smooth="yes"/>
      <point x="129" y="339"/>
      <point x="78" y="318"/>
      <point x="50" y="278" type="curve"/>
    </contour>
    <contour>
      <point x="79" y="132" type="line"/>
      <point x="99" y="160"/>
      <point x="134" y="176"/>
      <point x="170" y="176" type="curve" smooth="yes"/>
      <point x="230" y="176"/>
      <point x="286" y="132"/>
      <point x="354" y="132" type="curve" smooth="yes"/>
      <point x="399" y="132"/>
      <point x="450" y="153"/>
      <point x="478" y="193" type="curve"/>
      <point x="449" y="214" type="line"/>
      <point x="429" y="186"/>
      <point x="394" y="170"/>
      <point x="358" y="170" type="curve" smooth="yes"/>
      <point x="298" y="170"/>
      <point x="242" y="214"/>
      <point x="174" y="214" type="curve" smooth="yes"/>
      <point x="129" y="214"/>
      <point x="78" y="193"/>
      <point x="50" y="153" type="curve"/>
    </contour>
  </outline>
</glyph>
<glyph name="notequal" format="2">
  <advance width="498"/>
  <unicode hex="2260"/>
  <outline>
    <contour>
      <point x="160" y="44" type="line"/>
      <point x="195" y="34" type="line"/>
      <point x="348" y="426" type="line"/>
      <point x="313" y="436" type="line"/>
    </contour>
    <component base="equal"/>
  </outline>
</glyph>
<glyph name="lessequal" format="2">
  <advance width="448"/>
  <unicode hex="2264"/>
  <outline>
    <contour>
      <point x="382" y="134" type="line"/>
      <point x="398" y="168" type="line"/>
      <point x="122" y="280" type="line"/>
      <point x="396" y="402" type="line"/>
      <point x="380" y="436" type="line"/>
      <point x="50" y="289" type="line"/>
      <point x="50" y="269" type="line"/>
    </contour>
    <contour>
      <point x="394" y="56" type="line"/>
      <point x="394" y="94" type="line"/>
      <point x="50" y="94" type="line"/>
      <point x="50" y="56" type="line"/>
    </contour>
  </outline>
</glyph>
<glyph name="greaterequal" format="2">
  <advance width="448"/>
  <unicode hex="2265"/>
  <outline>
    <contour>
      <point x="66" y="134" type="line"/>
      <point x="398" y="269" type="line"/>
      <point x="398" y="289" type="line"/>
      <point x="68" y="436" type="line"/>
      <point x="52" y="402" type="line"/>
      <point x="326" y="280" type="line"/>
      <point x="50" y="168" type="line"/>
    </contour>
    <contour>
      <point x="54" y="56" type="line"/>
      <point x="398" y="56" type="line"/>
      <point x="398" y="94" type="line"/>
      <point x="54" y="94" type="line"/>
    </contour>
  </outline>
</glyph>
<glyph name="fi" format="2">
  <advance width="553"/>
  <unicode hex="FB01"/>
  <outline>
    <contour>
      <point x="381" y="606" type="curve"/>
      <point x="413" y="596" type="line"/>
      <point x="476" y="651" type="line"/>
      <point x="446" y="708"/>
      <point x="381" y="750"/>
      <point x="283" y="750" type="curve"/>
      <point x="182" y="710"/>
      <point x="115" y="637"/>
      <point x="85" y="534" type="curve"/>
      <point x="85" y="470" type="line"/>
      <point x="18" y="466" type="line"/>
      <point x="18" y="452" type="line"/>
      <point x="85" y="452" type="line"/>
      <point x="85" y="0" type="line" name="_corner01"/>
      <point x="174" y="0" type="line" name="_corner00"/>
      <point x="174" y="456" type="line"/>
      <point x="370" y="453" type="line"/>
      <point x="408" y="459" type="line"/>
      <point x="408" y="470" type="line"/>
      <point x="174" y="470" type="line"/>
      <point x="174" y="665" type="line"/>
      <point x="197" y="680"/>
      <point x="227" y="692"/>
      <point x="263" y="692" type="curve" smooth="yes"/>
      <point x="318" y="692"/>
      <point x="364" y="665"/>
    </contour>
    <contour>
      <point x="384" y="0" type="line" name="_corner02"/>
      <point x="473" y="0" type="line" name="_corner03"/>
      <point x="473" y="470" type="line"/>
      <point x="384" y="470" type="line"/>
    </contour>
  </outline>
</glyph>
<glyph name="fl" format="2">
  <advance width="553"/>
  <unicode hex="FB02"/>
  <anchor x="180" y="0" name="bottom"/>
  <anchor x="605" y="700" name="topright"/>
  <outline>
    <contour>
      <point x="388" y="656" type="curve"/>
      <point x="389" y="718" type="line"/>
      <point x="317" y="715" type="line"/>
      <point x="210" y="715"/>
      <point x="115" y="637"/>
      <point x="85" y="534" type="curve"/>
      <point x="85" y="470" type="line"/>
      <point x="18" y="466" type="line"/>
      <point x="18" y="452" type="line"/>
      <point x="85" y="452" type="line"/>
      <point x="85" y="0" type="line" name="_corner01"/>
      <point x="174" y="0" type="line" name="_corner00"/>
      <point x="174" y="456" type="line"/>
      <point x="280" y="453" type="line"/>
      <point x="318" y="458" type="line"/>
      <point x="318" y="470" type="line"/>
      <point x="174" y="470" type="line"/>
      <point x="174" y="643" type="line"/>
      <point x="229" y="683"/>
      <point x="309" y="689"/>
    </contour>
    <contour>
      <point x="384" y="0" type="line" name="_corner04"/>
      <point x="473" y="0" type="line" name="_corner02"/>
      <point x="473" y="750" type="line"/>
      <point x="384" y="750" type="line" name="_corner03"/>
    </contour>
  </outline>
</glyph>
<glyph name="_corner.capSerif" format="2">
  <advance width="60"/>
  <outline>
    <contour>
      <point x="-10" y="0" type="move"/>
      <point x="90" y="0" type="line"/>
      <point x="90" y="8" type="line"/>
      <point x="0" y="26" type="line"/>
    </contour>
  </outline>
</glyph>
<glyph name="_corner.lcSerif" format="2">
  <advance width="122"/>
  <outline>
    <contour>
      <point x="0" y="18" type="move"/>
      <point x="-70" y="6" type="line"/>
      <point x="-70" y="0" type="line"/>
      <point x="10" y="0" type="line"/>
    </contour>
  </outline>
</glyph>
<glyph name="_corner.topSerif" format="2">
  <advance width="600"/>
  <outline>
    <contour>
      <point x="71" y="3" type="move"/>
      <point x="-69" y="-33" type="line"/>
      <point x="-69" y="-40" type="line"/>
      <point x="-1" y="-35" type="line"/>
    </contour>
  </outline>
</glyph>
<glyph name="a.ss01" format="2">
  <advance width="483"/>
  <anchor x="242" y="0" name="bottom"/>
  <anchor x="435" y="10" name="ogonek"/>
  <anchor x="242" y="470" name="top"/>
  <outline>
    <contour>
      <point x="53" y="368" type="curve"/>
      <point x="58" y="362" type="line"/>
      <point x="99" y="397"/>
      <point x="130" y="419"/>
      <point x="189" y="419" type="curve" smooth="yes"/>
      <point x="268" y="419"/>
      <point x="314" y="379"/>
      <point x="314" y="284" type="curve" smooth="yes"/>
      <point x="314" y="0" type="line"/>
      <point x="403" y="0" type="line" name="_corner00"/>
      <point x="403" y="320" type="line" smooth="yes"/>
      <point x="403" y="425"/>
      <point x="339" y="484"/>
      <point x="204" y="484" type="curve"/>
      <point x="159" y="463"/>
      <point x="101" y="417"/>
    </contour>
    <contour>
      <point x="143" y="187" type="curve"/>
      <point x="189" y="221"/>
      <point x="243" y="230"/>
      <point x="319" y="212" type="curve"/>
      <point x="319" y="272" type="line"/>
      <point x="211" y="250"/>
      <point x="92" y="187"/>
      <point x="52" y="137" type="curve"/>
      <point x="34" y="43"/>
      <point x="84" y="-14"/>
      <point x="180" y="-14" type="curve"/>
      <point x="227" y="6"/>
      <point x="280" y="51"/>
      <point x="324" y="94" type="curve"/>
      <point x="319" y="101" type="line"/>
      <point x="284" y="72"/>
      <point x="251" y="55"/>
      <point x="213" y="55" type="curve" smooth="yes"/>
      <point x="149" y="55"/>
      <point x="118" y="118"/>
    </contour>
  </outline>
</glyph>
<glyph name="acutecomb.case" format="2">
  <advance width="400"/>
  <anchor x="147" y="700" name="_top"/>
  <outline>
    <contour>
      <point x="56" y="746" type="line"/>
      <point x="272" y="866" type="line"/>
      <point x="272" y="870" type="line"/>
      <point x="265" y="878" type="line"/>
      <point x="154" y="878" type="line"/>
      <point x="52" y="750" type="line"/>
    </contour>
  </outline>
</glyph>
<glyph name="brevecomb.case" format="2">
  <advance width="400"/>
  <anchor x="200" y="565" name="_top"/>
  <anchor x="200" y="724" name="top"/>
  <outline>
    <contour>
      <point x="200" y="600" type="curve" smooth="yes"/>
      <point x="276" y="600"/>
      <point x="320" y="646"/>
      <point x="320" y="724" type="curve"/>
      <point x="304" y="724" type="line"/>
      <point x="304" y="682"/>
      <point x="268" y="660"/>
      <point x="200" y="660" type="curve" smooth="yes"/>
      <point x="132" y="660"/>
      <point x="96" y="682"/>
      <point x="96" y="724" type="curve"/>
      <point x="80" y="724" type="line"/>
      <point x="80" y="646"/>
      <point x="124" y="600"/>
    </contour>
  </outline>
</glyph>
<glyph name="circumflexcomb.case" format="2">
  <advance width="400"/>
  <anchor x="200" y="700" name="_top"/>
  <anchor x="200" y="878" name="top"/>
  <outline>
    <contour>
      <point x="74" y="750" type="line"/>
      <point x="199" y="801" type="line"/>
      <point x="203" y="801" type="line"/>
      <point x="325" y="750" type="line"/>
      <point x="331" y="757" type="line"/>
      <point x="206" y="878" type="line"/>
      <point x="196" y="878" type="line"/>
      <point x="69" y="757" type="line"/>
    </contour>
  </outline>
</glyph>
<glyph name="dieresiscomb.case" format="2">
  <advance width="400"/>
  <anchor x="200" y="695" name="_top"/>
  <outline>
    <contour>
      <point x="272" y="750" type="curve" smooth="yes"/>
      <point x="298" y="750"/>
      <point x="319" y="772"/>
      <point x="319" y="799" type="curve" smooth="yes"/>
      <point x="319" y="826"/>
      <point x="298" y="848"/>
      <point x="272" y="848" type="curve" smooth="yes"/>
      <point x="246" y="848"/>
      <point x="225" y="826"/>
      <point x="225" y="799" type="curve" smooth="yes"/>
      <point x="225" y="772"/>
      <point x="246" y="750"/>
    </contour>
    <contour>
      <point x="128" y="750" type="curve" smooth="yes"/>
      <point x="154" y="750"/>
      <point x="175" y="772"/>
      <point x="175" y="799" type="curve" smooth="yes"/>
      <point x="175" y="826"/>
      <point x="154" y="848"/>
      <point x="128" y="848" type="curve" smooth="yes"/>
      <point x="102" y="848"/>
      <point x="81" y="826"/>
      <point x="81" y="799" type="curve" smooth="yes"/>
      <point x="81" y="772"/>
      <point x="102" y="750"/>
    </contour>
  </outline>
</glyph>
<glyph name="dotaccentcomb.case" format="2">
  <advance width="400"/>
  <anchor x="200" y="700" name="_top"/>
  <outline>
    <contour>
      <point x="200" y="750" type="curve" smooth="yes"/>
      <point x="233" y="750"/>
      <point x="258" y="775"/>
      <point x="258" y="808" type="curve"/>
      <point x="258" y="841"/>
      <point x="233" y="866"/>
      <point x="200" y="866" type="curve" smooth="yes"/>
      <point x="167" y="866"/>
      <point x="142" y="841"/>
      <point x="142" y="808" type="curve" smooth="yes"/>
      <point x="142" y="775"/>
      <point x="167" y="750"/>
    </contour>
  </outline>
</glyph>
<glyph name="f_b.liga" format="2">
  <advance width="835"/>
  <outline>
    <contour>
      <point x="388" y="656" type="curve"/>
      <point x="389" y="718" type="line"/>
      <point x="317" y="715" type="line"/>
      <point x="210" y="715"/>
      <point x="115" y="637"/>
      <point x="85" y="534" type="curve"/>
      <point x="85" y="470" type="line"/>
      <point x="18" y="466" type="line"/>
      <point x="18" y="452" type="line"/>
      <point x="85" y="452" type="line"/>
      <point x="85" y="0" type="line" name="_corner00"/>
      <point x="174" y="0" type="line" name="_corner01"/>
      <point x="174" y="456" type="line"/>
      <point x="280" y="453" type="line"/>
      <point x="318" y="458" type="line"/>
      <point x="318" y="470" type="line"/>
      <point x="174" y="470" type="line"/>
      <point x="174" y="643" type="line"/>
      <point x="229" y="683"/>
      <point x="309" y="689"/>
    </contour>
    <contour>
      <point x="384" y="389" type="line"/>
      <point x="473" y="389" type="line"/>
      <point x="473" y="750" type="line"/>
      <point x="384" y="750" type="line" name="_corner02"/>
    </contour>
    <contour>
      <point x="711" y="211" type="curve" smooth="yes"/>
      <point x="711" y="91"/>
      <point x="645" y="19"/>
      <point x="577" y="19" type="curve" smooth="yes"/>
      <point x="534" y="19"/>
      <point x="503" y="37"/>
      <point x="473" y="74" type="curve"/>
      <point x="473" y="364" type="line"/>
      <point x="509" y="405"/>
      <point x="549" y="420"/>
      <point x="585" y="420" type="curve" smooth="yes"/>
      <point x="644" y="420"/>
      <point x="711" y="336"/>
    </contour>
    <contour>
      <point x="473" y="390" type="line"/>
      <point x="384" y="390" type="line"/>
      <point x="384" y="53" type="line"/>
      <point x="384" y="52" type="line"/>
      <point x="370" y="41" type="line"/>
      <point x="410" y="7"/>
      <point x="496" y="-14"/>
      <point x="554" y="-14" type="curve"/>
      <point x="613" y="0"/>
      <point x="796" y="87"/>
      <point x="796" y="247" type="curve" smooth="yes"/>
      <point x="796" y="407"/>
      <point x="720" y="484"/>
      <point x="615" y="484" type="curve"/>
      <point x="575" y="468"/>
      <point x="518" y="428"/>
      <point x="473" y="375" type="curve"/>
    </contour>
  </outline>
</glyph>
<glyph name="f_f.liga" format="2">
  <advance width="618"/>
  <outline>
    <contour>
      <point x="271" y="628" type="curve"/>
      <point x="303" y="618" type="line"/>
      <point x="366" y="681" type="line"/>
      <point x="351" y="719"/>
      <point x="311" y="746"/>
      <point x="263" y="750" type="curve"/>
      <point x="182" y="710"/>
      <point x="115" y="637"/>
      <point x="85" y="534" type="curve"/>
      <point x="85" y="470" type="line"/>
      <point x="18" y="466" type="line"/>
      <point x="18" y="452" type="line"/>
      <point x="85" y="452" type="line"/>
      <point x="85" y="0" type="line" name="_corner00"/>
      <point x="174" y="0" type="line" name="_corner01"/>
      <point x="174" y="456" type="line"/>
      <point x="359" y="453" type="line"/>
      <point x="397" y="458" type="line"/>
      <point x="397" y="470" type="line"/>
      <point x="174" y="470" type="line"/>
      <point x="174" y="665" type="line"/>
      <point x="190" y="687"/>
      <point x="205" y="692"/>
      <point x="219" y="692" type="curve" smooth="yes"/>
      <point x="238" y="692"/>
      <point x="261" y="682"/>
    </contour>
    <contour>
      <point x="570" y="628" type="curve"/>
      <point x="602" y="618" type="line"/>
      <point x="665" y="681" type="line"/>
      <point x="650" y="719"/>
      <point x="610" y="746"/>
      <point x="562" y="750" type="curve"/>
      <point x="481" y="710"/>
      <point x="414" y="637"/>
      <point x="384" y="534" type="curve"/>
      <point x="384" y="0" type="line" name="_corner02"/>
      <point x="473" y="0" type="line" name="_corner03"/>
      <point x="473" y="456" type="line"/>
      <point x="579" y="453" type="line"/>
      <point x="617" y="458" type="line"/>
      <point x="617" y="470" type="line"/>
      <point x="473" y="470" type="line"/>
      <point x="473" y="665" type="line"/>
      <point x="489" y="687"/>
      <point x="504" y="692"/>
      <point x="518" y="692" type="curve" smooth="yes"/>
      <point x="537" y="692"/>
      <point x="560" y="682"/>
    </contour>
  </outline>
</glyph>
<glyph name="f_f_i.liga" format="2">
  <advance width="852"/>
  <outline>
    <contour>
      <point x="271" y="628" type="curve"/>
      <point x="303" y="618" type="line"/>
      <point x="366" y="681" type="line"/>
      <point x="351" y="719"/>
      <point x="311" y="746"/>
      <point x="263" y="750" type="curve"/>
      <point x="182" y="710"/>
      <point x="115" y="637"/>
      <point x="85" y="534" type="curve"/>
      <point x="85" y="470" type="line"/>
      <point x="18" y="466" type="line"/>
      <point x="18" y="452" type="line"/>
      <point x="85" y="452" type="line"/>
      <point x="85" y="0" type="line" name="_corner00"/>
      <point x="174" y="0" type="line" name="_corner01"/>
      <point x="174" y="456" type="line"/>
      <point x="360" y="453" type="line"/>
      <point x="398" y="458" type="line"/>
      <point x="398" y="470" type="line"/>
      <point x="174" y="470" type="line"/>
      <point x="174" y="665" type="line"/>
      <point x="190" y="687"/>
      <point x="205" y="692"/>
      <point x="219" y="692" type="curve" smooth="yes"/>
      <point x="238" y="692"/>
      <point x="261" y="682"/>
    </contour>
    <contour>
      <point x="680" y="596" type="curve"/>
      <point x="712" y="586" type="line"/>
      <point x="775" y="651" type="line"/>
      <point x="745" y="708"/>
      <point x="680" y="750"/>
      <point x="582" y="750" type="curve"/>
      <point x="481" y="710"/>
      <point x="414" y="637"/>
      <point x="384" y="534" type="curve"/>
      <point x="384" y="0" type="line" name="_corner02"/>
      <point x="473" y="0" type="line" name="_corner03"/>
      <point x="473" y="456" type="line"/>
      <point x="669" y="453" type="line"/>
      <point x="707" y="459" type="line"/>
      <point x="707" y="470" type="line"/>
      <point x="473" y="470" type="line"/>
      <point x="473" y="665" type="line"/>
      <point x="503" y="685"/>
      <point x="531" y="692"/>
      <point x="556" y="692" type="curve" smooth="yes"/>
      <point x="605" y="692"/>
      <point x="663" y="667"/>
    </contour>
    <contour>
      <point x="683" y="0" type="line" name="_corner05"/>
      <point x="772" y="0" type="line" name="_corner04"/>
      <point x="772" y="470" type="line"/>
      <point x="683" y="470" type="line"/>
    </contour>
  </outline>
</glyph>
<glyph name="f_h.liga" format="2">
  <advance width="861"/>
  <outline>
    <contour>
      <point x="388" y="656" type="curve"/>
      <point x="389" y="718" type="line"/>
      <point x="317" y="715" type="line"/>
      <point x="230" y="715"/>
      <point x="115" y="637"/>
      <point x="85" y="534" type="curve"/>
      <point x="85" y="470" type="line"/>
      <point x="18" y="466" type="line"/>
      <point x="18" y="452" type="line"/>
      <point x="85" y="452" type="line"/>
      <point x="85" y="0" type="line" name="_corner00"/>
      <point x="174" y="0" type="line" name="_corner01"/>
      <point x="174" y="456" type="line"/>
      <point x="280" y="453" type="line"/>
      <point x="318" y="458" type="line"/>
      <point x="318" y="470" type="line"/>
      <point x="174" y="470" type="line"/>
      <point x="174" y="643" type="line"/>
      <point x="249" y="683"/>
      <point x="309" y="689"/>
    </contour>
    <contour>
      <point x="384" y="389" type="line"/>
      <point x="473" y="389" type="line"/>
      <point x="473" y="750" type="line"/>
      <point x="384" y="750" type="line" name="_corner02"/>
    </contour>
    <contour>
      <point x="687" y="284" type="curve" smooth="yes"/>
      <point x="687" y="0" type="line" name="_corner03"/>
      <point x="776" y="0" type="line" name="_corner04"/>
      <point x="776" y="320" type="line" smooth="yes"/>
      <point x="776" y="425"/>
      <point x="725" y="484"/>
      <point x="620" y="484" type="curve"/>
      <point x="575" y="463"/>
      <point x="511" y="417"/>
      <point x="463" y="368" type="curve"/>
      <point x="468" y="362" type="line"/>
      <point x="509" y="397"/>
      <point x="555" y="415"/>
      <point x="594" y="415" type="curve" smooth="yes"/>
      <point x="656" y="415"/>
      <point x="687" y="379"/>
    </contour>
    <contour>
      <point x="384" y="0" type="line" name="_corner06"/>
      <point x="473" y="0" type="line" name="_corner05"/>
      <point x="473" y="371" type="line"/>
      <point x="473" y="371" type="line"/>
      <point x="473" y="470" type="line"/>
      <point x="384" y="470" type="line"/>
    </contour>
  </outline>
</glyph>
<glyph name="hungarumlautcomb.case" format="2">
  <advance width="400"/>
  <anchor x="156" y="543" name="_top"/>
  <anchor x="156" y="734" name="top"/>
  <outline>
    <contour>
      <point x="43" y="595" type="line"/>
      <point x="201" y="724" type="line"/>
      <point x="196" y="733" type="line"/>
      <point x="114" y="730" type="line"/>
      <point x="36" y="598" type="line"/>
    </contour>
    <contour>
      <point x="157" y="599" type="line"/>
      <point x="344" y="717" type="line"/>
      <point x="341" y="726" type="line"/>
      <point x="260" y="734" type="line"/>
      <point x="151" y="603" type="line"/>
    </contour>
  </outline>
</glyph>
<glyph name="macroncomb.case" format="2">
  <advance width="400"/>
  <anchor x="200" y="681" name="_top"/>
  <anchor x="200" y="790" name="top"/>
  <outline>
    <contour>
      <point x="80" y="752" type="line"/>
      <point x="320" y="752" type="line"/>
      <point x="320" y="790" type="line"/>
      <point x="80" y="790" type="line"/>
    </contour>
  </outline>
</glyph>
